<?xml version="1.0" standalone="no"?>
<!DOCTYPE svg PUBLIC "-//W3C//DTD SVG 1.1//EN" "http://www.w3.org/Graphics/SVG/1.1/DTD/svg11.dtd">
<svg xmlns="http://www.w3.org/2000/svg">
<defs >
<font id="BarlowSemiCondensed" horiz-adv-x="493" ><font-face
    font-family="Barlow Semi Condensed Black"
    units-per-em="1000"
    panose-1="0 0 10 6 0 0 0 0 0 0"
    ascent="1000"
    descent="-200"
    alphabetic="0" />
<glyph unicode=" " glyph-name="space" horiz-adv-x="200" />
<glyph unicode="!" glyph-name="exclam" horiz-adv-x="329" d="M98 248T94 252T89 263L71 685Q71 700 85 700H243Q257 700 257 685L239 263Q239 256 235 252T223 248H105Q98 248 94 252ZM120 0T94 26T67 94Q67 136 93 162T161 188Q202 188 228 162T255 94Q255
54 229 27T161 0Q120 0 94 26Z" />
<glyph unicode="&quot;" glyph-name="quotedbl" horiz-adv-x="422" d="M26 460T25 474L7 684V686Q7 700 22 700H169Q177 700 181 696T184 684L166 474Q165 460 151 460H40Q26 460 25 474ZM259 460T258 474L240 684V686Q240 700 255 700H402Q410 700 414 696T417
684L399 474Q398 460 384 460H273Q259 460 258 474Z" />
<glyph unicode="#" glyph-name="numbersign" horiz-adv-x="670" d="M645 395T641 391T630 387H565Q562 387 560 385T558 381L550 324Q549 318 555 318H593Q600 318 604 314T608 303V173Q608 166 604 162T593 158H531Q526 158 524 152L508 48Q507 34 492 34H334Q318
34 320 50L336 152Q338 158 330 158H281Q276 158 274 152L258 48Q257 34 242 34H84Q68 34 70 50L86 152Q88 158 80 158H40Q33 158 29 162T25 173V303Q25 310 29 314T40 318H105Q108 318 110 320T112 324L120 381Q122 387 115 387H77Q70 387 66 391T62 402V533Q62
540 66 544T77 548H139Q144 548 146 554L162 658Q163 672 178 672H336Q352 672 350 656L334 554Q333 548 340 548H389Q394 548 396 554L412 658Q413 672 428 672H586Q602 672 600 656L584 554Q583 548 590 548H630Q637 548 641 544T645 533V402Q645 395 641 391ZM358
318T360 320T362 324L370 381Q372 387 365 387H315Q312 387 310 385T308 381L300 324Q299 318 305 318H355Q358 318 360 320Z" />
<glyph unicode="$" glyph-name="dollar" horiz-adv-x="522" d="M502 121T458 69T335 -1Q330 -3 330 -8L332 -60Q332 -67 328 -71T317 -75H195Q188 -75 184 -71T180 -60L182 -3Q182 1 177 3Q105 24 65 75T24 198V221Q24 228 28 232T39 236H190Q197 236 201 232T205
221V207Q205 185 223 169T272 153Q296 153 307 165T319 194Q319 213 303 225T240 261Q226 267 219 271Q164 298 124 325T55 396T25 503Q25 575 66 626T178 698Q183 700 183 704L181 770Q181 777 185 781T196 785H317Q324 785 328 781T332 770L330 705Q330 701 335
699Q410 678 454 624T498 493V477Q498 470 494 466T483 462H332Q325 462 321 466T317 477V491Q317 513 300 530T254 547Q232 547 219 536T206 504Q206 482 228 465T315 416Q321 413 328 409T344 399Q396 371 427 349T480 290T502 200Q502 121 458 69Z" />
<glyph unicode="%" glyph-name="percent" horiz-adv-x="783" d="M155 371T117 393T56 455T33 540Q33 586 55 624T116 685T201 708Q246 708 284 686T345 625T368 540Q368 494 346 455T285 394T201 371Q155 371 117 393ZM140 0T140 10L142 18L509 689Q515 700 527
700H627Q639 700 639 690L637 682L270 11Q265 0 252 0H152Q140 0 140 10ZM228 472T246 491T265 540Q265 568 246 588T201 608Q173 608 154 589T135 540Q135 511 154 492T201 472Q228 472 246 491ZM542 -8T504 14T443 76T420 161Q420 207 442 245T503 306T588 329Q633
329 671 307T732 246T755 161Q755 115 733 76T672 15T588 -8Q542 -8 504 14ZM615 93T633 112T652 161Q652 189 633 209T588 229Q560 229 541 210T522 161Q522 132 541 113T588 93Q615 93 633 112Z" />
<glyph unicode="&amp;" glyph-name="ampersand" horiz-adv-x="690" d="M658 11T658 8Q658 0 645 0H471Q460 0 452 8Q445 15 431 31Q428 35 423 33Q342 -9 245 -9Q147 -9 85 37T22 177Q22 240 51 284T130 361Q134 364 131 369Q89 421 76 451T63 518Q63 572 90 615T167
683T282 708Q348 708 400 683T483 611T513 506Q513 445 483 401T401 322Q397 318 400 313Q426 283 441 267Q443 265 445 265T449 267Q483 305 501 337Q506 346 513 346Q516 346 521 343L638 277Q646 272 646 265Q646 260 644 257Q610 192 560 137Q556 133 559 129L580
104Q591 91 613 65T653 18Q658 11 658 8ZM270 538T261 529T251 505Q251 495 256 485T281 450Q286 445 290 448Q325 475 325 502Q325 519 315 528T287 538Q270 538 261 529ZM292 153T306 159Q313 162 308 167L289 188Q273 205 250 232Q246 236 241 233Q226 222 219
212T212 188Q212 171 225 160T261 149Q271 149 277 150Q292 153 306 159Z" />
<glyph unicode="&apos;" glyph-name="quotesingle" horiz-adv-x="199" d="M26 460T25 474L7 684V686Q7 700 22 700H179Q187 700 191 696T194 684L175 474Q174 460 160 460H40Q26 460 25 474Z" />
<glyph unicode="(" glyph-name="parenleft" horiz-adv-x="388" d="M142 -83T136 -74Q75 4 39 103T2 337Q2 580 136 747Q142 756 154 756H309Q315 756 318 754T322 747Q322 743 319 738Q271 650 242 556T212 337Q212 211 241 118T319 -65Q322 -70 322 -74Q322 -78
319 -80T309 -83H154Q142 -83 136 -74Z" />
<glyph unicode=")" glyph-name="parenright" horiz-adv-x="388" d="M246 756T252 747Q314 670 350 571T386 336Q386 91 252 -74Q246 -83 234 -83H80Q67 -83 67 -73Q67 -68 69 -65Q117 21 146 115T176 336Q176 462 147 556T69 738Q66 743 66 747Q66 751 69 753T79
756H234Q246 756 252 747Z" />
<glyph unicode="*" glyph-name="asterisk" horiz-adv-x="381" d="M147 395T143 399T139 410L140 471Q140 479 133 475L75 442Q71 439 67 439Q60 439 55 447L17 515Q15 517 15 522Q15 531 24 535L85 567Q92 571 85 575L24 605Q10 613 17 625L55 695Q60 703 66 703Q71
703 75 700L133 667Q140 663 140 671L139 731Q139 738 143 742T154 746H228Q235 746 239 742T243 731L242 671Q242 663 249 667L306 700Q311 703 314 703Q321 703 326 695L364 625Q366 622 366 618Q366 610 357 605L296 575Q293 574 293 572T296 567L358 535Q366
530 366 523Q366 521 364 515L326 446Q321 438 314 438Q309 438 306 440L249 475Q246 476 244 475T242 470L243 410Q243 403 239 399T228 395H154Q147 395 143 399Z" />
<glyph unicode="+" glyph-name="plus" horiz-adv-x="456" d="M428 374T432 370T436 359V239Q436 232 432 228T421 224H309Q303 224 303 218V106Q303 99 299 95T288 91H168Q161 91 157 95T153 106V218Q153 224 147 224H35Q28 224 24 228T20 239V359Q20 366 24 370T35
374H147Q153 374 153 380V492Q153 499 157 503T168 507H288Q295 507 299 503T303 492V380Q303 374 309 374H421Q428 374 432 370Z" />
<glyph unicode="," glyph-name="comma" horiz-adv-x="249" d="M31 -111T27 -107T24 -95L45 146Q46 160 60 160H197Q204 160 208 156T210 143L149 -98Q146 -111 133 -111H39Q31 -111 27 -107Z" />
<glyph unicode="-" glyph-name="hyphen" horiz-adv-x="381" d="M28 205T24 209T20 220V350Q20 357 24 361T35 365H346Q353 365 357 361T361 350V220Q361 213 357 209T346 205H35Q28 205 24 209Z" />
<glyph unicode="." glyph-name="period" horiz-adv-x="255" d="M83 -8T57 18T30 86Q30 128 56 154T124 180Q165 180 191 154T218 86Q218 46 191 19T124 -8Q83 -8 57 18Z" />
<glyph unicode="/" glyph-name="slash" horiz-adv-x="496" d="M21 0T18 4T17 17L278 688Q283 700 296 700H452Q460 700 463 696T464 683L203 12Q198 0 185 0H29Q21 0 18 4Z" />
<glyph unicode="0" glyph-name="zero" horiz-adv-x="516" d="M150 -12T87 51T23 221V479Q23 585 86 647T258 710Q366 710 429 648T493 479V221Q493 114 430 51T258 -12Q150 -12 87 51ZM280 149T292 165T305 211V488Q305 516 293 532T258 549Q236 549 224 533T211
488V211Q211 182 223 166T258 149Q280 149 292 165Z" />
<glyph unicode="1" glyph-name="one" horiz-adv-x="330" d="M115 700T126 700H290Q297 700 301 696T305 685V15Q305 8 301 4T290 0H132Q125 0 121 4T117 15V523Q117 528 111 528L31 520H29Q15 520 15 534V650Q15 663 27 667L108 697Q115 700 126 700Z" />
<glyph unicode="2" glyph-name="two" horiz-adv-x="520" d="M268 166T269 164T274 161H485Q492 161 496 157T500 146V15Q500 8 496 4T485 0H42Q35 0 31 4T27 15V144Q27 155 35 163Q166 294 235 376Q303 454 303 499Q303 522 291 534T258 547Q238 547 225 535T212
501V470Q212 463 208 459T197 455H37Q30 455 26 459T22 470V520Q26 577 58 619T144 685T263 708Q332 708 384 681T465 607T493 500Q493 452 476 411T420 322Q400 296 368 263T303 199L271 168Q268 166 269 164Z" />
<glyph unicode="3" glyph-name="three" horiz-adv-x="504" d="M482 298T482 233Q482 152 449 95Q421 46 371 19T252 -8Q164 -8 103 36T27 155Q19 184 17 221Q17 236 32 236H191Q206 236 207 221Q207 203 213 186Q217 170 227 162T252 153Q265 153 275 162T291
186Q298 214 298 246Q298 279 291 299Q279 338 251 338Q230 338 207 320Q202 316 196 316Q189 316 185 321L105 410Q101 414 101 421Q101 428 107 432L236 533Q239 536 238 538T233 540H50Q43 540 39 544T35 555V685Q35 692 39 696T50 700H461Q468 700 472 696T476
685V551Q476 540 468 533L359 435Q353 429 360 427Q426 410 458 348Q482 298 482 233Z" />
<glyph unicode="4" glyph-name="four" horiz-adv-x="586" d="M555 337T559 333T563 322V184Q563 177 559 173T548 169H513Q507 169 507 163V15Q507 8 503 4T492 0H334Q327 0 323 4T319 15V163Q319 169 313 169H30Q23 169 19 173T15 184V293Q15 301 18 311L161
688Q166 700 178 700H347Q355 700 358 696T359 683L235 344Q233 337 239 337H313Q319 337 319 343V426Q319 433 323 437T334 441H492Q499 441 503 437T507 426V343Q507 337 513 337H548Q555 337 559 333Z" />
<glyph unicode="5" glyph-name="five" horiz-adv-x="506" d="M489 297T489 226Q489 175 476 136Q454 67 397 30T255 -7Q169 -7 111 33T33 148Q25 172 23 191V193Q23 207 38 207H199Q211 207 214 194Q215 190 219 182Q229 154 255 154Q268 154 278 161T292 183Q299
202 299 224Q299 250 292 265Q281 291 255 291Q231 291 220 274Q212 263 202 263H38Q31 263 27 267T23 278V685Q23 692 27 696T38 700H462Q469 700 473 696T477 685V554Q477 547 473 543T462 539H217Q211 539 211 533V435Q211 432 213 431T218 431Q255 453 299
453Q360 453 402 425T467 347Q489 297 489 226Z" />
<glyph unicode="6" glyph-name="six" horiz-adv-x="506" d="M489 287T489 226Q489 169 473 128Q450 63 394 28T255 -7Q196 -7 150 13T72 70Q23 128 23 217L22 524Q22 579 50 621T131 685T251 708Q317 708 367 686T446 621T475 524V487Q475 480 471 476T460 472H302Q295
472 291 476T287 487V504Q287 521 277 533T250 545Q233 545 222 533T211 504V429Q211 422 218 425Q255 451 300 451Q357 451 400 421T466 339Q489 287 489 226ZM299 202T299 229Q299 264 290 281Q280 304 255 304Q233 304 221 284Q211 267 211 230Q211 204 217
184Q227 154 255 154Q282 154 293 185Q299 202 299 229Z" />
<glyph unicode="7" glyph-name="seven" horiz-adv-x="473" d="M87 0T84 4T83 17L266 532Q268 539 261 539H165Q159 539 159 533V497Q159 490 155 486T144 482H23Q16 482 12 486T8 497L9 685Q9 692 13 696T24 700H451Q458 700 462 696T466 685V548Q466 539 463
530L279 12Q275 0 262 0H95Q87 0 84 4Z" />
<glyph unicode="8" glyph-name="eight" horiz-adv-x="504" d="M485 262T485 209Q485 162 465 117Q440 60 384 26T253 -8Q180 -8 123 24T39 117Q20 159 20 210Q20 263 40 308Q56 339 82 358Q88 363 83 366Q54 392 40 422Q23 462 23 507Q23 569 54 617Q82 663 134
689T253 715Q319 715 370 690T450 617Q482 568 482 507Q482 460 462 420Q447 392 420 368Q417 367 417 365T419 361Q447 342 463 308Q485 262 485 209ZM209 507T209 493Q209 474 213 462Q218 446 228 437T252 428Q267 428 277 437T292 461Q297 474 297 492Q297
507 294 519Q290 535 279 544T252 554Q238 554 227 545T212 519Q209 507 209 493ZM297 199T297 224Q297 247 293 260Q288 278 278 287T253 297Q237 297 227 287T213 260Q209 247 209 225Q209 203 215 186Q219 171 229 162T253 153Q266 153 275 161T290 184Q297
199 297 224Z" />
<glyph unicode="9" glyph-name="nine" horiz-adv-x="497" d="M475 176Q475 121 447 79T366 15T246 -8Q180 -8 130 14T51 79T22 176V213Q22 220 26 224T37 228H195Q202 228 206 224T210 213V196Q210 179 220 167T247 155Q264 155 275 167T286 196V271Q286 279 279
275Q242 249 197 249Q140 249 97 279T31 361Q8 413 8 474Q8 531 24 572Q47 637 103 672T242 707Q301 707 347 687T425 630Q474 572 474 483L475 176ZM264 396T276 416Q286 434 286 470Q286 497 280 516Q270 546 242 546Q215 546 204 515Q198 498 198 471Q198 436
207 419Q217 396 242 396Q264 396 276 416Z" />
<glyph unicode=":" glyph-name="colon" horiz-adv-x="350" d="M133 321T107 347T80 415Q80 457 106 483T174 509Q215 509 241 483T268 415Q268 375 241 348T174 321Q133 321 107 347ZM133 0T107 26T80 94Q80 136 106 162T174 188Q215 188 241 162T268 94Q268 54
241 27T174 0Q133 0 107 26Z" />
<glyph unicode=";" glyph-name="semicolon" horiz-adv-x="289" d="M98 291T68 321T37 396Q37 424 52 448T93 486T145 500Q172 500 197 486T237 448T253 396Q253 352 223 322T145 291Q98 291 68 321ZM53 -111T49 -107T46 -95L64 146Q65 160 79 160H216Q223 160
227 156T229 143L170 -98Q167 -111 154 -111H61Q53 -111 49 -107Z" />
<glyph unicode="&lt;" glyph-name="less" horiz-adv-x="456" d="M436 38T431 35T418 35L31 202Q20 208 20 219V355Q20 367 31 372L418 539Q424 541 425 541Q436 541 436 528V382Q436 370 424 365L217 291Q213 290 213 288T217 283L424 209Q436 205 436 192V46Q436
38 431 35Z" />
<glyph unicode="=" glyph-name="equal" horiz-adv-x="456" d="M28 308T24 312T20 323V443Q20 450 24 454T35 458H421Q428 458 432 454T436 443V323Q436 316 432 312T421 308H35Q28 308 24 312ZM28 388T24 392T20 403V523Q20 530 24 534T35 538H421Q428 538 432
534T436 523V403Q436 396 432 392T421 388H35Q28 388 24 392Z" />
<glyph unicode="&gt;" glyph-name="greater" horiz-adv-x="456" d="M32 33T31 33Q20 33 20 46V192Q20 205 32 209L239 283Q243 285 243 287T239 291L32 365Q20 370 20 382V528Q20 536 25 539T38 539L425 372Q436 367 436 355V219Q436 208 425 202L38 35Q32 33 31 33Z" />
<glyph unicode="?" glyph-name="question" horiz-adv-x="523" d="M161 236T157 240T153 251V264Q153 303 167 332T202 379T255 419Q287 441 302 457T317 494Q317 515 303 527T264 539Q236 539 220 525T203 488V484Q203 470 188 470L30 477Q15 477 15 488Q15 553
47 603T136 682T269 710Q341 710 394 684T477 612T507 503Q507 458 492 427T457 377T403 334Q370 311 355 294T339 252V251Q339 244 335 240T324 236H168Q161 236 157 240ZM202 -5T176 21T149 89Q149 131 175 157T243 183Q284 183 310 157T337 89Q337 49 311 22T243
-5Q202 -5 176 21Z" />
<glyph unicode="@" glyph-name="at" horiz-adv-x="781" d="M532 683T605 645T720 538T761 377Q761 352 758 325Q745 223 692 167T553 110Q483 110 443 147Q439 150 435 146Q416 125 387 117T317 109Q274 109 246 137T214 219Q213 225 213 239Q213 261 217 299Q223
341 232 366Q248 423 279 452T357 481Q399 481 423 461Q427 459 428 459Q429 459 430 461T431 465Q434 475 446 475H539Q554 475 553 459L531 301Q530 294 530 281Q530 255 540 241T568 226Q593 226 607 253T627 324Q629 339 629 367Q629 465 575 517T427 569Q357
569 298 534T199 436T148 297Q145 272 145 249Q145 181 172 134T245 63T343 39Q411 39 469 75Q473 78 478 78Q485 78 489 71L535 4Q538 -1 538 -5Q538 -11 531 -17Q490 -45 436 -62T322 -79Q239 -79 170 -39T61 75T20 241Q20 273 24 300Q40 414 99 501T246 635T436
683Q532 683 605 645ZM384 212T394 238Q404 270 406 294Q408 316 408 349Q408 361 401 367T383 374Q372 374 364 367T351 348Q348 341 344 324T339 291Q336 270 336 252Q336 241 337 238Q342 212 363 212Q384 212 394 238Z" />
<glyph unicode="A" glyph-name="A" horiz-adv-x="623" d="M411 0T408 13L391 90Q389 95 385 95H235Q231 95 229 90L213 13Q210 0 196 0H32Q24 0 21 4T19 17L197 687Q200 700 213 700H411Q424 700 427 687L604 17Q605 15 605 12Q605 0 591 0H425Q411 0 408 13ZM261
244Q261 239 267 239H352Q359 239 358 246L313 454Q312 458 309 458T305 454L261 246V244Z" />
<glyph unicode="B" glyph-name="B" horiz-adv-x="550" d="M526 101T460 51T288 0H48Q41 0 37 4T33 15V685Q33 692 37 696T48 700H268Q513 700 513 503Q513 410 447 366Q441 362 446 359Q525 305 525 201Q526 101 460 51ZM221 539T221 533V434Q221 428 227 428H270Q299
428 314 442T329 484Q329 539 270 539H227Q221 539 221 533ZM307 161T322 177T337 223Q337 252 323 268T281 285H227Q221 285 221 279V167Q221 161 227 161H280Q307 161 322 177Z" />
<glyph unicode="C" glyph-name="C" horiz-adv-x="543" d="M199 -8T143 21T56 103T25 228V475Q25 545 56 598T143 679T273 708Q347 708 402 680T489 601T520 482Q520 475 516 471T505 466L347 459Q332 459 332 473V484Q332 513 316 530T273 547Q246 547 230 530T213
484V216Q213 188 229 171T273 153Q300 153 316 170T332 216V228Q332 242 347 242L505 235Q512 235 516 231T520 220Q520 152 489 100T402 20T273 -8Q199 -8 143 21Z" />
<glyph unicode="D" glyph-name="D" horiz-adv-x="551" d="M41 0T37 4T33 15V685Q33 692 37 696T48 700H275Q349 700 405 674T492 599T523 488V213Q523 150 492 102T405 27T275 0H48Q41 0 37 4ZM221 161T227 161L276 162Q301 162 317 182T335 235V466Q335 499 319
519T275 539H227Q221 539 221 533V167Q221 161 227 161Z" />
<glyph unicode="E" glyph-name="E" horiz-adv-x="507" d="M486 547T482 543T471 539H227Q221 539 221 533V439Q221 433 227 433H368Q375 433 379 429T383 418V288Q383 281 379 277T368 273H227Q221 273 221 267V167Q221 161 227 161H471Q478 161 482 157T486 146V15Q486
8 482 4T471 0H48Q41 0 37 4T33 15V685Q33 692 37 696T48 700H471Q478 700 482 696T486 685V554Q486 547 482 543Z" />
<glyph unicode="F" glyph-name="F" d="M486 547T482 543T471 539H227Q221 539 221 533V439Q221 433 227 433H368Q375 433 379 429T383 418V288Q383 281 379 277T368 273H227Q221 273 221 267V15Q221 8 217 4T206 0H48Q41 0 37 4T33 15V685Q33 692 37 696T48 700H471Q478
700 482 696T486 685V554Q486 547 482 543Z" />
<glyph unicode="G" glyph-name="G" horiz-adv-x="545" d="M199 -8T143 21T56 103T25 226V475Q25 545 56 597T143 679T273 708Q346 708 402 680T489 601T520 488V471Q520 464 516 460T505 456H347Q340 456 336 460T332 471V486Q332 512 316 529T273 547Q246 547
230 528T213 478V223Q213 192 231 173T277 153Q302 153 318 169T334 213V243Q334 249 328 249H281Q274 249 270 253T266 264V382Q266 389 270 393T281 397H505Q512 397 516 393T520 382V221Q520 153 489 101T402 21T273 -8Q199 -8 143 21Z" />
<glyph unicode="H" glyph-name="H" horiz-adv-x="549" d="M333 692T337 696T348 700H506Q513 700 517 696T521 685V15Q521 8 517 4T506 0H348Q341 0 337 4T333 15V266Q333 272 327 272H227Q221 272 221 266V15Q221 8 217 4T206 0H48Q41 0 37 4T33 15V685Q33 692
37 696T48 700H206Q213 700 217 696T221 685V439Q221 433 227 433H327Q333 433 333 439V685Q333 692 337 696Z" />
<glyph unicode="I" glyph-name="I" horiz-adv-x="253" d="M41 0T37 4T33 15V685Q33 692 37 696T48 700H206Q213 700 217 696T221 685V15Q221 8 217 4T206 0H48Q41 0 37 4Z" />
<glyph unicode="J" glyph-name="J" horiz-adv-x="529" d="M180 -8T125 19T40 97T10 212V268Q10 275 14 279T25 283H183Q190 283 194 279T198 268V212Q198 186 212 170T252 153Q277 153 293 169T309 212V685Q309 692 313 696T324 700H481Q488 700 492 696T496 685V212Q496
147 466 97T380 20T252 -8Q180 -8 125 19Z" />
<glyph unicode="K" glyph-name="K" horiz-adv-x="577" d="M41 0T37 4T33 15V685Q33 692 37 696T48 700H206Q213 700 217 696T221 685V467Q221 462 223 462T228 465L356 690Q361 700 374 700H547Q560 700 560 691Q560 687 557 682L383 391Q381 388 383 383L563
18L565 10Q565 0 552 0H380Q368 0 363 11L255 237Q254 241 252 241T247 237L223 194Q221 188 221 187V15Q221 8 217 4T206 0H48Q41 0 37 4Z" />
<glyph unicode="L" glyph-name="L" horiz-adv-x="510" d="M41 0T37 4T33 15V685Q33 692 37 696T48 700H206Q213 700 217 696T221 685V167Q221 161 227 161H478Q485 161 489 157T493 146V15Q493 8 489 4T478 0H48Q41 0 37 4Z" />
<glyph unicode="M" glyph-name="M" horiz-adv-x="640" d="M426 700T439 700H595Q602 700 606 696T610 685V15Q610 8 606 4T595 0H437Q430 0 426 4T422 15V399Q422 403 420 404T415 401L351 295Q345 285 333 285H307Q295 285 289 295L225 402Q223 406 221 405T218
400V15Q218 8 214 4T203 0H45Q38 0 34 4T30 15V685Q30 692 34 696T45 700H201Q213 700 219 690L317 524Q319 521 321 521T325 524L421 690Q426 700 439 700Z" />
<glyph unicode="N" glyph-name="N" horiz-adv-x="593" d="M374 692T378 696T389 700H546Q553 700 557 696T561 685V15Q561 8 557 4T546 0H381Q368 0 364 11L225 337Q224 341 221 341T218 336L220 15Q220 8 216 4T205 0H48Q41 0 37 4T33 15V685Q33 692 37 696T48
700H212Q225 700 229 689L368 363Q369 359 372 359T375 365L374 685Q374 692 378 696Z" />
<glyph unicode="O" glyph-name="O" horiz-adv-x="553" d="M201 -10T144 20T56 104T25 231V469Q25 541 56 595T144 678T276 708Q351 708 408 679T497 595T528 469V231Q528 159 497 105T408 20T276 -10Q201 -10 144 20ZM305 151T322 171T340 224V474Q340 507 323
527T276 547Q248 547 231 527T213 474V224Q213 191 230 171T276 151Q305 151 322 171Z" />
<glyph unicode="P" glyph-name="P" horiz-adv-x="541" d="M370 700T420 672T498 592T526 473Q526 407 499 358T421 281T305 253H224Q218 253 218 247V15Q218 8 214 4T203 0H45Q38 0 34 4T30 15V685Q30 692 34 696T45 700H304Q370 700 420 672ZM302 400T320 418T338
469Q338 502 320 520T272 539H224Q218 539 218 533V406Q218 400 224 400H272Q302 400 320 418Z" />
<glyph unicode="Q" glyph-name="Q" horiz-adv-x="539" d="M342 708T397 678T483 592T514 463V230Q514 150 476 92T369 9Q364 7 364 2V-72Q364 -79 360 -83T349 -87H191Q184 -87 180 -83T176 -72V2Q176 7 171 9Q103 34 64 92T25 230V463Q25 536 55 591T141 677T269
708Q342 708 397 678ZM213 223Q213 192 228 173T269 153Q295 153 310 172T326 223V478Q326 509 311 528T269 547Q244 547 229 528T213 478V223Z" />
<glyph unicode="R" glyph-name="R" horiz-adv-x="553" d="M341 0T337 12L252 264Q251 269 245 269H227Q221 269 221 263V15Q221 8 217 4T206 0H48Q41 0 37 4T33 15V685Q33 692 37 696T48 700H312Q376 700 425 672T501 594T528 477Q528 416 503 370T431 297Q427
294 428 289L531 17Q532 14 532 10Q532 0 519 0H354Q341 0 337 12ZM221 539T221 533V418Q221 412 227 412H280Q307 412 324 429T341 475Q341 505 325 522T280 539H227Q221 539 221 533Z" />
<glyph unicode="S" glyph-name="S" horiz-adv-x="533" d="M196 -8T141 18T55 90T24 198V221Q24 228 28 232T39 236H194Q201 236 205 232T209 221V207Q209 185 227 169T277 153Q302 153 314 165T326 194Q326 213 310 225T247 259L223 271Q167 298 126 325T55 396T25
503Q25 564 55 610T139 682T262 708Q333 708 389 681T476 605T508 493V477Q508 470 504 466T493 462H338Q331 462 327 466T323 477V491Q323 513 306 530T259 547Q237 547 224 536T210 504Q210 482 232 465T321 416Q331 410 351 400Q404 371 436 349T490 290T512
200Q512 104 446 48T270 -8Q196 -8 141 18Z" />
<glyph unicode="T" glyph-name="T" horiz-adv-x="547" d="M521 700T525 696T529 685V554Q529 547 525 543T514 539H372Q366 539 366 533V15Q366 8 362 4T351 0H193Q186 0 182 4T178 15V533Q178 539 172 539H33Q26 539 22 543T18 554V685Q18 692 22 696T33 700H514Q521
700 525 696Z" />
<glyph unicode="U" glyph-name="U" horiz-adv-x="549" d="M202 -8T147 21T61 103T30 226V685Q30 692 34 696T45 700H203Q210 700 214 696T218 685V217Q218 188 233 171T275 153Q300 153 316 170T332 217V685Q332 692 336 696T347 700H505Q512 700 516 696T520
685V226Q520 156 490 103T404 21T275 -8Q202 -8 147 21Z" />
<glyph unicode="V" glyph-name="V" horiz-adv-x="583" d="M191 0T188 13L19 683Q18 685 18 688Q18 700 32 700H204Q218 700 221 686L292 298Q293 294 295 294T299 298L368 686Q371 700 384 700H551Q559 700 562 696T564 683L393 13Q390 0 377 0H204Q191 0 188 13Z" />
<glyph unicode="W" glyph-name="W" horiz-adv-x="829" d="M190 0T187 13L19 683V687Q19 700 32 700H199Q213 700 216 687L274 371Q275 367 277 367T281 371L333 686Q335 700 349 700H483Q496 700 499 686L557 371Q558 367 560 367T564 371L616 686Q618 700 632
700H797Q813 700 810 683L657 13Q654 0 641 0H492Q478 0 476 14L419 346Q418 350 416 350T412 346L363 14Q362 0 347 0H203Q190 0 187 13Z" />
<glyph unicode="X" glyph-name="X" horiz-adv-x="581" d="M27 0T23 5T23 18L180 346Q181 350 180 354L23 682Q21 688 21 689Q21 694 25 697T35 700H201Q215 700 219 688L287 525Q289 521 291 521T295 525L364 688Q369 700 382 700H546Q554 700 558 695T558 682L402
354Q401 350 402 346L558 18Q560 12 560 11Q560 6 556 3T546 0H382Q369 0 365 11L295 175Q294 179 292 179T287 175L218 12Q213 0 200 0H35Q27 0 23 5Z" />
<glyph unicode="Y" glyph-name="Y" horiz-adv-x="580" d="M203 2T199 6T195 17V242Q195 248 194 250L22 683Q21 686 21 690Q21 700 34 700H203Q209 700 214 697T220 687L286 469Q288 465 290 465T294 469L359 687Q360 693 365 696T376 700H546Q554 700 557 696T558
683L384 250Q383 248 383 242V17Q383 10 379 6T368 2H210Q203 2 199 6Z" />
<glyph unicode="Z" glyph-name="Z" d="M26 0T22 4T18 15V156Q18 165 24 174L265 532Q267 535 266 537T261 539H33Q26 539 22 543T18 554V685Q18 692 22 696T33 700H458Q465 700 469 696T473 685V545Q473 536 467 527L224 168Q222 165 223 163T228 161H458Q465
161 469 157T473 146V15Q473 8 469 4T458 0H33Q26 0 22 4Z" />
<glyph unicode="[" glyph-name="bracketleft" horiz-adv-x="407" d="M41 -164T37 -160T33 -149V803Q33 810 37 814T48 818H297Q304 818 308 814T312 803V672Q312 665 308 661T297 657H227Q221 657 221 651V3Q221 -3 227 -3H297Q304 -3 308 -7T312 -18V-149Q312
-156 308 -160T297 -164H48Q41 -164 37 -160Z" />
<glyph unicode="\" glyph-name="backslash" horiz-adv-x="496" d="M480 14T480 10Q480 0 467 0H311Q298 0 293 12L32 683Q31 686 31 690Q31 700 44 700H200Q213 700 218 688L479 17Q480 14 480 10Z" />
<glyph unicode="]" glyph-name="bracketright" horiz-adv-x="407" d="M374 -156T370 -160T359 -164H110Q103 -164 99 -160T95 -149V-18Q95 -11 99 -7T110 -3H180Q186 -3 186 3V651Q186 657 180 657H110Q103 657 99 661T95 672V803Q95 810 99 814T110 818H359Q366
818 370 814T374 803V-149Q374 -156 370 -160Z" />
<glyph unicode="^" glyph-name="asciicircum" horiz-adv-x="464" d="M30 291T27 295T26 308L149 688Q153 700 166 700H295Q308 700 312 688L438 308Q439 306 439 302Q439 291 426 291H299Q286 291 283 304L236 491Q235 496 232 496T228 491L181 304Q178 291 165
291H38Q30 291 27 295Z" />
<glyph unicode="_" glyph-name="underscore" horiz-adv-x="500" d="M18 0T14 4T10 15V125Q10 132 14 136T25 140H475Q482 140 486 136T490 125V15Q490 8 486 4T475 0H25Q18 0 14 4Z" />
<glyph unicode="`" glyph-name="grave" horiz-adv-x="252" d="M235 593T235 589Q235 579 221 579H116Q104 579 98 588L24 682Q20 686 20 691Q20 695 23 697T33 700H162Q175 700 180 690L232 597Q235 593 235 589Z" />
<glyph unicode="a" glyph-name="a" horiz-adv-x="504" d="M312 528T365 506T448 445T478 358V15Q478 8 474 4T463 0H305Q298 0 294 4T290 15V42Q290 46 288 46T283 43Q250 -8 167 -8Q99 -8 56 27T12 145Q12 233 64 268T221 303H284Q290 303 290 309V329Q290 346
279 356T247 367Q234 367 224 362T209 347Q206 340 202 337T192 335L33 346Q18 348 18 359Q21 409 51 447T132 507T246 528Q312 528 365 506ZM260 125T275 137T290 170V189Q290 195 284 195H250Q228 195 216 186T203 159Q203 143 212 134T238 125Q260 125 275 137Z"
/>
<glyph unicode="b" glyph-name="b" horiz-adv-x="520" d="M485 342T486 323T488 271Q488 204 480 163Q464 83 425 38T323 -8Q259 -8 224 26Q221 29 219 28T217 23V15Q217 8 213 4T202 0H44Q37 0 33 4T29 15V685Q29 692 33 696T44 700H202Q209 700 213 696T217
685V498Q217 494 219 494T224 496Q244 515 268 521T323 528Q387 528 426 485T480 366Q485 342 486 323ZM301 292Q301 307 298 322Q294 343 284 355T259 367Q243 367 232 355T219 322Q217 302 217 261V225Q217 217 219 201Q222 179 232 166T259 153Q275 153 285
166T298 201Q300 221 300 261L301 292Z" />
<glyph unicode="c" glyph-name="c" horiz-adv-x="502" d="M163 -8T104 36T30 160Q20 201 20 262Q20 313 30 363Q44 439 104 483T256 528Q345 528 405 485T480 368Q484 346 485 335Q485 321 471 319L314 304H312Q300 304 298 318Q298 328 295 335Q285 367 255 367Q225
367 215 332Q209 309 209 261Q209 208 216 186Q225 153 255 153Q287 153 294 188Q296 198 296 202Q299 218 313 216L470 202Q484 200 484 186L481 163Q469 81 409 37T256 -8Q163 -8 104 36Z" />
<glyph unicode="d" glyph-name="d" horiz-adv-x="520" d="M303 692T307 696T318 700H476Q483 700 487 696T491 685V15Q491 8 487 4T476 0H318Q311 0 307 4T303 15V23Q303 27 301 28T296 26Q261 -8 197 -8Q134 -8 95 37T40 163Q32 204 32 271Q32 303 33 322T40
366Q55 442 94 485T197 528Q227 528 251 522T296 496Q299 493 301 493T303 498V685Q303 692 307 696ZM303 217T303 225V262Q303 302 301 322Q299 342 288 354T261 367Q246 367 236 355T222 322Q220 312 220 292V261Q220 221 222 201Q224 180 234 167T261 153Q277
153 287 166T301 201Q303 217 303 225Z" />
<glyph unicode="e" glyph-name="e" horiz-adv-x="506" d="M489 284T489 263L488 228Q488 213 473 213H218Q213 213 213 209Q213 198 217 186Q228 152 262 152Q294 152 306 176Q314 189 325 186L468 159Q475 158 478 153T479 141Q454 68 400 30T266 -8Q165 -8 108
34T32 160Q22 203 22 260Q20 303 28 349Q41 431 101 479T253 528Q319 528 370 502T452 430T487 324Q489 284 489 263ZM223 367T215 331L213 314Q213 308 218 308H292Q297 308 297 314L295 331Q292 348 282 357T255 367Q223 367 215 331Z" />
<glyph unicode="f" glyph-name="f" horiz-adv-x="359" d="M335 520T339 516T343 505V395Q343 388 339 384T328 380H266Q260 380 260 374V15Q260 8 256 4T245 0H87Q80 0 76 4T72 15V374Q72 380 66 380H31Q24 380 20 384T16 395V505Q16 512 20 516T31 520H66Q72
520 72 526V556Q72 636 116 668T256 701Q283 701 297 700H314Q321 700 325 696T329 685V590Q329 583 325 579T314 575H297Q260 571 260 539V526Q260 520 266 520H328Q335 520 339 516Z" />
<glyph unicode="g" glyph-name="g" horiz-adv-x="515" d="M299 512T303 516T314 520H472Q479 520 483 516T487 505V51Q487 -79 413 -141T205 -203Q172 -203 127 -198Q113 -196 113 -182L117 -48Q117 -32 133 -35Q160 -39 187 -39Q236 -39 263 -22T297 33V34Q297
38 294 39T287 37Q254 5 199 5Q132 5 88 41T29 155L27 162Q20 188 20 263Q20 338 29 368L31 375Q43 448 85 488T196 528Q257 528 292 485Q294 481 296 482T299 487V505Q299 512 303 516ZM286 158T294 191Q299 219 299 263Q299 307 294 333Q284 367 254 367Q240
367 231 358T217 334Q209 305 209 262Q209 224 215 192Q225 158 255 158Q286 158 294 191Z" />
<glyph unicode="h" glyph-name="h" horiz-adv-x="507" d="M398 528T440 480T482 345V15Q482 8 478 4T467 0H309Q302 0 298 4T294 15V318Q294 340 284 353T256 367Q237 367 227 354T216 318V15Q216 8 212 4T201 0H43Q36 0 32 4T28 15V685Q28 692 32 696T43 700H201Q208
700 212 696T216 685V480Q216 476 218 476T225 480Q258 528 323 528Q398 528 440 480Z" />
<glyph unicode="i" glyph-name="i" horiz-adv-x="240" d="M79 555T53 581T26 649Q26 691 52 717T120 743Q161 743 187 717T214 649Q214 609 188 582T120 555Q79 555 53 581ZM35 0T31 4T27 15V505Q27 512 31 516T42 520H200Q207 520 211 516T215 505V15Q215 8 211
4T200 0H42Q35 0 31 4Z" />
<glyph unicode="j" glyph-name="j" horiz-adv-x="244" d="M84 555T58 581T31 649Q31 691 57 717T125 743Q166 743 192 717T219 649Q219 609 193 582T125 555Q84 555 58 581ZM-75 -201T-75 -186V-59Q-75 -44 -59 -44Q-5 -47 14 -31T33 28L31 505Q31 512 35 516T46
520H204Q211 520 215 516T219 505V29Q219 -63 200 -111T122 -182T-60 -201Q-75 -201 -75 -186Z" />
<glyph unicode="k" glyph-name="k" horiz-adv-x="517" d="M36 0T32 4T28 15V685Q28 692 32 696T43 700H201Q208 700 212 696T216 685V403Q216 399 218 398T223 401L288 510Q294 520 306 520H476Q489 520 489 511Q489 507 486 502L367 324Q364 321 366 316L500
18L502 10Q502 0 489 0H325Q313 0 308 12L244 179Q243 183 241 183T236 179L218 144Q216 138 216 137V15Q216 8 212 4T201 0H43Q36 0 32 4Z" />
<glyph unicode="l" glyph-name="l" horiz-adv-x="241" d="M35 0T31 4T27 15V685Q27 692 31 696T42 700H200Q207 700 211 696T215 685V15Q215 8 211 4T200 0H42Q35 0 31 4Z" />
<glyph unicode="m" glyph-name="m" horiz-adv-x="770" d="M666 528T705 480T745 345V15Q745 8 741 4T730 0H572Q565 0 561 4T557 15V318Q557 341 547 354T520 367Q503 367 493 354T482 318V15Q482 8 478 4T467 0H309Q302 0 298 4T294 15V318Q294 341 284 354T255
367Q241 367 231 358T217 334Q216 331 216 326V15Q216 8 212 4T201 0H43Q36 0 32 4T28 15V505Q28 512 32 516T43 520H201Q208 520 212 516T216 505V482Q216 478 218 477T223 480Q261 528 328 528Q419 528 458 456Q460 453 461 453Q465 453 468 459Q489 496 521
512T590 528Q666 528 705 480Z" />
<glyph unicode="n" glyph-name="n" horiz-adv-x="507" d="M398 528T440 480T482 345V15Q482 8 478 4T467 0H309Q302 0 298 4T294 15V318Q294 340 284 353T256 367Q237 367 227 354T216 318V15Q216 8 212 4T201 0H43Q36 0 32 4T28 15V505Q28 512 32 516T43 520H201Q208
520 212 516T216 505V480Q216 476 218 476T225 480Q258 528 323 528Q398 528 440 480Z" />
<glyph unicode="o" glyph-name="o" horiz-adv-x="510" d="M157 -8T97 41T25 176Q20 216 20 261Q20 313 26 350Q38 432 98 480T256 528Q352 528 412 480T484 351Q490 314 490 262Q490 225 486 179Q475 91 415 42T255 -8Q157 -8 97 41ZM273 153T284 166T299 201Q301
221 301 261Q301 282 299 322Q295 343 284 355T255 367Q237 367 226 355T211 322Q209 302 209 261Q209 221 211 201Q214 179 225 166T255 153Q273 153 284 166Z" />
<glyph unicode="p" glyph-name="p" horiz-adv-x="521" d="M489 316T489 249Q489 217 488 198T481 154Q466 78 427 35T324 -8Q294 -8 270 -2T225 24Q222 27 220 27T218 22V-165Q218 -172 214 -176T203 -180H45Q38 -180 34 -176T30 -165V505Q30 512 34 516T45 520H203Q210
520 214 516T218 505V497Q218 493 220 492T225 494Q260 528 324 528Q387 528 426 483T481 357Q489 316 489 249ZM302 213T302 228L301 259Q301 299 299 319Q297 340 287 353T260 367Q244 367 234 354T220 319Q218 303 218 295V259Q218 218 220 198Q222 178 233
166T260 153Q275 153 285 165T299 198Q302 213 302 228Z" />
<glyph unicode="q" glyph-name="q" horiz-adv-x="521" d="M303 512T307 516T318 520H476Q483 520 487 516T491 505V-165Q491 -172 487 -176T476 -180H318Q311 -180 307 -176T303 -165V22Q303 26 301 26T296 24Q276 5 252 -1T197 -8Q133 -8 94 35T40 154Q35 178
34 197T32 249Q32 316 40 357Q56 437 95 482T197 528Q261 528 296 494Q299 491 301 492T303 497V505Q303 512 307 516ZM303 218T303 258V295Q303 303 301 319Q298 341 288 354T261 367Q245 367 235 354T222 319Q220 299 220 259V228Q220 208 222 198Q226 177 236
165T261 153Q277 153 288 165T301 198Q303 218 303 258Z" />
<glyph unicode="r" glyph-name="r" horiz-adv-x="371" d="M337 527T357 516Q366 511 364 497L340 341Q339 333 335 331T322 331Q310 334 294 334Q276 334 263 330Q243 323 230 308T216 270V16Q216 9 212 5T201 1H43Q36 1 32 5T28 16V505Q28 512 32 516T43 520H201Q208
520 212 516T216 505V483Q216 479 218 478T222 480Q254 527 309 527Q337 527 357 516Z" />
<glyph unicode="s" glyph-name="s" horiz-adv-x="478" d="M141 -8T79 36T17 155V161Q17 168 21 172T32 176H182Q197 176 197 164Q197 148 210 139T243 130Q259 130 268 136T277 152Q277 165 262 171T211 186Q160 196 131 209Q24 252 24 355Q24 435 82 481T237
528Q336 528 395 479T454 347Q454 336 439 336H294Q287 336 283 340T279 351V352Q279 367 269 375T241 383Q225 383 215 375T204 356Q204 340 221 333T277 317Q313 309 331 303Q393 283 429 249T466 155Q466 78 406 35T245 -8Q141 -8 79 36Z" />
<glyph unicode="t" glyph-name="t" horiz-adv-x="349" d="M334 388T330 384T319 380H257Q251 380 251 374V200Q251 160 285 160H304Q311 160 315 156T319 145V15Q319 1 304 -1L243 -2Q156 -2 114 24T71 123V374Q71 380 65 380H25Q18 380 14 384T10 395V505Q10
512 14 516T25 520H65Q71 520 71 526V639Q71 646 75 650T86 654H236Q243 654 247 650T251 639V526Q251 520 257 520H319Q326 520 330 516T334 505V395Q334 388 330 384Z" />
<glyph unicode="u" glyph-name="u" horiz-adv-x="507" d="M292 512T296 516T307 520H465Q472 520 476 516T480 505V15Q480 8 476 4T465 0H307Q300 0 296 4T292 15V34Q292 38 290 38T285 36Q252 -8 180 -8Q112 -8 69 35T26 162V505Q26 512 30 516T41 520H199Q206
520 210 516T214 505V203Q214 180 224 167T252 153Q271 153 281 166T292 203V505Q292 512 296 516Z" />
<glyph unicode="v" glyph-name="v" horiz-adv-x="512" d="M153 0T150 13L15 503Q14 505 14 509Q14 520 27 520H200Q215 520 216 506L253 273Q254 269 256 269T259 273L296 506Q297 520 312 520L485 518Q493 518 496 514T497 501L363 13Q360 0 346 0H167Q153 0 150 13Z" />
<glyph unicode="w" glyph-name="w" horiz-adv-x="739" d="M144 0T141 13L14 503Q13 505 13 508Q13 520 27 520H184Q199 520 200 506L236 275Q237 271 239 271T243 275L282 506Q284 520 298 520H436Q449 520 452 506L494 274Q495 270 497 270T501 274L541 506Q543
520 557 520L712 518Q720 518 723 514T725 501L598 13Q595 0 582 0H424Q410 0 407 13L368 199Q367 203 365 203T361 199L328 14Q325 0 312 0H157Q144 0 141 13Z" />
<glyph unicode="x" glyph-name="x" horiz-adv-x="530" d="M22 0T19 2T15 9Q15 14 18 18L150 256Q151 260 150 264L18 502Q15 507 15 511Q15 515 18 517T28 520H199Q210 520 216 509L258 425Q260 421 262 421T266 425L309 509Q315 520 326 520H502Q515 520 515
510Q515 505 513 502L380 264Q379 260 380 256L513 18Q515 15 515 10Q515 0 502 0H332Q321 0 315 11L272 98Q271 101 269 101T264 98L222 11Q217 0 205 0H28Q22 0 19 2Z" />
<glyph unicode="y" glyph-name="y" horiz-adv-x="497" d="M37 -199T35 -195T33 -184V-60Q33 -53 36 -49T43 -45Q103 -45 128 -38T154 -5Q154 2 153 4L13 503Q12 505 12 509Q12 520 25 520H194Q209 520 210 506L247 262Q248 258 250 258T253 262L288 506Q289 520
304 520L472 519Q480 519 483 515T484 502L340 -2Q316 -79 289 -119T205 -179T46 -199H40Q37 -199 35 -195Z" />
<glyph unicode="z" glyph-name="z" horiz-adv-x="426" d="M21 0T17 4T13 15V159Q13 171 20 178L172 343Q174 346 174 348T169 350H35Q28 350 24 354T20 365V505Q20 512 24 516T35 520H388Q395 520 399 516T403 505V361Q403 350 395 342L234 177Q232 174 232 172T237
170H396Q403 170 407 166T411 155V15Q411 8 407 4T396 0H28Q21 0 17 4Z" />
<glyph unicode="{" glyph-name="braceleft" horiz-adv-x="409" d="M187 -164T149 -130T110 -34V166Q110 248 48 255Q33 257 33 271V387Q33 402 48 403Q110 410 110 491V688Q110 749 148 783T255 818H361Q368 818 372 814T376 803V672Q376 665 372 661T361 657H346Q327
657 313 641T298 601V462Q298 364 237 333Q230 329 237 326Q298 295 298 195V53Q298 30 312 14T346 -3H361Q368 -3 372 -7T376 -18V-149Q376 -156 372 -160T361 -164H255Q187 -164 149 -130Z" />
<glyph unicode="|" glyph-name="bar" horiz-adv-x="221" d="M25 -80T21 -76T17 -65V745Q17 752 21 756T32 760H190Q197 760 201 756T205 745V-65Q205 -72 201 -76T190 -80H32Q25 -80 21 -76Z" />
<glyph unicode="}" glyph-name="braceright" horiz-adv-x="409" d="M48 -164Q41 -164 37 -160T33 -149V-18Q33 -11 37 -7T48 -3H63Q82 -3 96 13T111 53V195Q111 295 172 326Q179 329 172 333Q111 364 111 462V601Q111 624 97 640T63 657H48Q41 657 37 661T33 672V803Q33
810 37 814T48 818H154Q222 818 260 784T299 688V491Q299 410 361 403Q376 402 376 387V271Q376 257 361 255Q299 248 299 166V-34Q299 -95 261 -129T154 -164H48Z" />
<glyph unicode="~" glyph-name="asciitilde" horiz-adv-x="533" d="M312 181T274 204Q269 207 253 216T223 231T196 237Q165 237 138 205Q132 198 127 198Q122 198 118 201L31 257Q20 265 24 277Q41 329 86 363T183 398Q221 398 263 373Q271 369 286 360T312 347T334
342Q364 342 384 373Q390 381 397 381Q401 381 405 378L501 318Q513 309 508 298Q485 248 442 215T349 181Q312 181 274 204Z" />
<glyph unicode="&#xa0;" glyph-name="uni00A0" horiz-adv-x="200" />
<glyph unicode="&#xa1;" glyph-name="exclamdown" horiz-adv-x="329" d="M202 708T228 682T255 614Q255 572 229 546T161 520Q120 520 94 546T67 614Q67 655 93 681T161 708Q202 708 228 682ZM89 452T93 456T105 460H223Q230 460 234 456T239 445L257 23Q257 8
243 8H85Q71 8 71 23L89 445Q89 452 93 456Z" />
<glyph unicode="&#xa2;" glyph-name="cent" horiz-adv-x="502" d="M296 288T296 292Q299 308 313 306L470 292Q484 290 484 276L481 253Q472 191 434 150T336 92Q331 90 331 86L334 12Q334 -3 320 -3H189Q175 -3 175 12L178 86Q178 90 173 92Q114 109 78 149T30
250Q20 291 20 352Q20 403 30 453Q41 510 77 550T171 607Q176 609 176 613L173 686Q173 701 187 701H318Q332 701 332 686L329 614Q329 610 334 608Q392 592 430 553T480 458Q484 436 485 425Q485 411 471 409L314 394H312Q300 394 298 408Q298 418 295 425Q285
457 255 457Q225 457 215 422Q209 399 209 351Q209 298 216 276Q225 243 255 243Q287 243 294 278Q296 288 296 292Z" />
<glyph unicode="&#xa3;" glyph-name="sterling" horiz-adv-x="572" d="M293 199T269 168Q267 165 268 163T273 161H537Q544 161 548 157T552 146V15Q552 8 548 4T537 0H83Q76 0 72 4T68 15V150Q68 161 77 168Q94 184 99 201T105 245V267Q105 273 99 273H48Q41
273 37 277T33 288V409Q33 416 37 420T48 424H99Q105 424 105 430V475Q105 586 166 647T330 708Q417 708 473 661T551 530Q552 528 552 525Q552 520 549 517T539 513L389 492H386Q376 492 371 504Q364 527 355 537T331 547Q312 547 303 532T293 482V430Q293 424
299 424H446Q453 424 457 420T461 409V288Q461 281 457 277T446 273H299Q293 273 293 267V245Q293 199 269 168Z" />
<glyph unicode="&#xa4;" glyph-name="currency" horiz-adv-x="607" d="M536 253T516 210Q515 204 518 201L583 136Q588 131 588 126Q588 120 582 115L485 30Q480 25 475 25Q469 25 464 30L404 89Q401 92 395 91Q352 71 301 71Q252 71 210 89Q204 90 201 87L144
30Q139 25 133 25Q128 25 123 30L26 115Q20 120 20 126Q20 131 25 136L86 196Q89 199 88 205Q65 251 65 305Q65 358 86 400Q87 406 84 409L19 473Q14 478 14 483Q14 490 20 494L117 579Q122 584 127 584Q133 584 138 579L196 521Q199 518 205 519Q250 539 301 539Q353
539 400 517Q406 516 409 519L470 579Q475 584 481 584Q486 584 491 579L588 494Q594 490 594 483Q594 478 589 473L520 404Q517 401 518 396Q536 354 536 305Q536 253 516 210ZM376 336T354 358T301 381Q270 381 248 359T225 305Q225 274 247 252T301 229Q332
229 354 251T377 305Q376 336 354 358Z" />
<glyph unicode="&#xa5;" glyph-name="yen" horiz-adv-x="610" d="M571 700T574 696T575 683L437 339Q434 332 441 332H514Q521 332 525 328T529 317V246Q529 239 525 235T514 231H406Q400 231 400 225V202Q400 196 406 196H514Q521 196 525 192T529 181V110Q529
103 525 99T514 95H406Q400 95 400 89V17Q400 10 396 6T385 2H228Q221 2 217 6T213 17V89Q213 95 207 95H98Q91 95 87 99T83 110V181Q83 188 87 192T98 196H207Q213 196 213 202V225Q213 231 207 231H98Q91 231 87 235T83 246V317Q83 324 87 328T98 332H172Q179
332 176 339L40 683Q39 686 39 690Q39 700 52 700H221Q227 700 232 697T238 687L303 469Q305 465 307 465T311 469L377 687Q378 693 383 696T394 700H563Q571 700 574 696Z" />
<glyph unicode="&#xa6;" glyph-name="brokenbar" horiz-adv-x="221" d="M25 395T21 399T17 410V745Q17 752 21 756T32 760H190Q197 760 201 756T205 745V410Q205 403 201 399T190 395H32Q25 395 21 399ZM25 -80T21 -76T17 -65V270Q17 277 21 281T32 285H190Q197
285 201 281T205 270V-65Q205 -72 201 -76T190 -80H32Q25 -80 21 -76Z" />
<glyph unicode="&#xa7;" glyph-name="section" horiz-adv-x="496" d="M146 -205T87 -158T26 -34L25 -3Q25 4 29 8T40 12H198Q205 12 209 8T213 -3V-11Q213 -25 223 -35T250 -45Q266 -45 276 -37T286 -16Q286 2 261 17T171 64Q121 89 91 112T45 165Q25 199 25 244Q25
298 55 339Q77 364 103 380Q108 385 103 389Q64 419 43 452T22 530Q22 580 51 620T131 684T249 708Q313 708 363 686T442 622T471 526V508Q471 501 467 497T456 493H298Q291 493 287 497T283 508V511Q283 527 273 537T246 547Q231 547 221 539T211 517Q211 501
222 490T248 471T301 446Q351 424 384 406T438 364Q476 324 476 266Q476 217 451 178Q428 137 394 121Q388 118 394 113Q436 81 455 49T474 -28Q474 -110 410 -157T245 -205Q146 -205 87 -158ZM271 217T281 229Q288 238 288 252Q288 267 280 277Q270 289 250 289Q229
289 220 277Q213 269 213 253Q213 238 221 228Q230 217 251 217Q271 217 281 229Z" />
<glyph unicode="&#xa8;" glyph-name="dieresis" horiz-adv-x="421" d="M276 560T250 586T223 654Q223 696 249 722T317 748Q358 748 384 722T411 654Q411 614 384 587T317 560Q276 560 250 586ZM63 560T37 586T10 654Q10 696 36 722T104 748Q145 748 171 722T198
654Q198 614 171 587T104 560Q63 560 37 586Z" />
<glyph unicode="&#xa9;" glyph-name="copyright" horiz-adv-x="772" d="M283 -8T201 39T72 169T25 356Q25 455 72 535T201 662T385 708Q488 708 570 662T700 536T747 356Q747 251 700 169T571 39T385 -8Q283 -8 201 39ZM456 104T512 136T601 225T633 356Q633 424
601 479T512 565T385 597Q315 597 259 566T171 479T139 356Q139 283 171 226T259 136T385 104Q456 104 512 136ZM334 178T301 209T268 292V411Q268 463 301 493T388 524Q443 524 476 495T509 415Q509 412 505 410T494 407L429 404H427Q414 404 414 417Q414 429
407 436T388 444Q377 444 370 437T363 417V285Q363 273 370 266T388 259Q400 259 407 266T414 285Q414 298 429 298L494 296Q509 296 509 288Q509 238 476 208T388 178Q334 178 301 209Z" />
<glyph unicode="&#xaa;" glyph-name="ordfeminine" horiz-adv-x="319" d="M185 569Q191 569 191 575V581Q191 597 181 606T155 616Q135 616 125 601Q121 594 118 591T109 589L29 594Q12 596 15 610Q20 652 58 680T153 708Q216 708 257 677T299 596V376Q299 369
295 365T284 361H206Q199 361 195 363T191 370Q191 373 189 373T184 372Q162 356 124 356Q73 356 40 381T7 460Q7 569 150 569H185ZM166 441T178 452T191 476V481Q191 487 185 487H158Q116 487 116 463Q116 441 146 441Q166 441 178 452ZM6 303T10 307T21 311H290Q297
311 301 307T305 296V251Q305 244 301 240T290 236H21Q14 236 10 240T6 251V296Q6 303 10 307Z" />
<glyph unicode="&#xab;" glyph-name="guillemotleft" horiz-adv-x="469" d="M260 119T260 118Q260 113 256 110T246 107H124Q112 107 107 118L38 271Q36 279 36 281Q36 283 38 291L107 444Q112 455 124 455H246Q254 455 258 450T258 437L185 285Q184 281 185 277L258
125Q260 119 260 118ZM435 119T435 118Q435 113 431 110T421 107H299Q287 107 282 118L213 271Q211 279 211 281Q211 283 213 291L282 444Q287 455 299 455H421Q429 455 433 450T433 437L360 285Q359 281 360 277L433 125Q435 119 435 118Z" />
<glyph unicode="&#xac;" glyph-name="logicalnot" horiz-adv-x="456" d="M20 365T24 369T35 373H421Q428 373 432 369T436 358V145Q436 138 432 134T421 130H301Q294 130 290 134T286 145V217Q286 223 280 223H35Q28 223 24 227T20 238V358Q20 365 24 369Z" />
<glyph unicode="&#xad;" glyph-name="uni00AD" horiz-adv-x="381" d="M28 205T24 209T20 220V350Q20 357 24 361T35 365H346Q353 365 357 361T361 350V220Q361 213 357 209T346 205H35Q28 205 24 209Z" />
<glyph unicode="&#xae;" glyph-name="registered" horiz-adv-x="436" d="M277 708T324 682T399 610T426 507Q426 446 399 398T325 323T218 296Q159 296 112 323T37 398T10 507Q10 564 37 610T111 682T218 708Q277 708 324 682ZM276 369T314 407T352 507Q352 562
314 598T218 635Q160 635 123 599T85 507Q85 446 122 408T218 369Q276 369 314 407ZM294 504T272 490Q268 487 269 482L286 428Q287 426 287 422Q287 411 274 411H245Q231 411 228 424L214 473Q213 478 212 478Q210 478 210 472V426Q210 419 206 415T195 411H168Q161
411 157 415T153 426V584Q153 591 157 595T168 599H231Q259 599 276 582T294 537Q294 504 272 490ZM216 551Q210 551 210 545V526Q210 520 216 520H222Q228 520 232 525T237 536Q237 543 233 547T222 551H216Z" />
<glyph unicode="&#xaf;" glyph-name="overscore" horiz-adv-x="271" d="M8 570T4 574T0 585V680Q0 687 4 691T15 695H256Q263 695 267 691T271 680V585Q271 578 267 574T256 570H15Q8 570 4 574Z" />
<glyph unicode="&#xb0;" glyph-name="degree" horiz-adv-x="366" d="M135 460T96 483T33 547T10 635Q10 683 33 722T95 785T183 808Q231 808 270 785T333 723T356 635Q356 587 333 547T271 484T183 460Q135 460 96 483ZM206 579T221 595T237 635Q237 660 222 676T183
692Q160 692 144 676T128 635Q128 612 144 596T183 579Q206 579 221 595Z" />
<glyph unicode="&#xb1;" glyph-name="plusminus" horiz-adv-x="456" d="M428 494T432 490T436 479V359Q436 352 432 348T421 344H309Q303 344 303 338V226Q303 219 299 215T288 211H168Q161 211 157 215T153 226V338Q153 344 147 344H35Q28 344 24 348T20 359V479Q20
486 24 490T35 494H147Q153 494 153 500V612Q153 619 157 623T168 627H288Q295 627 299 623T303 612V500Q303 494 309 494H421Q428 494 432 490ZM28 0T24 4T20 15V135Q20 142 24 146T35 150H421Q428 150 432 146T436 135V15Q436 8 432 4T421 0H35Q28 0 24 4Z" />
<glyph unicode="&#xb2;" glyph-name="uni00B2" horiz-adv-x="318" d="M27 399T23 403T19 414V489Q19 500 27 508L48 529Q107 585 144 626Q184 671 184 697Q184 709 178 716T160 723Q149 723 142 716T135 698V686Q135 679 131 675T120 671H31Q24 671 20 675T16
686V710Q20 763 60 793T162 824Q227 824 265 790T303 694Q303 666 295 644T268 597Q253 577 206 530L185 508Q182 505 183 503T188 500H292Q299 500 303 496T307 485V414Q307 407 303 403T292 399H34Q27 399 23 403Z" />
<glyph unicode="&#xb3;" glyph-name="uni00B3" horiz-adv-x="310" d="M302 567T302 539Q302 513 298 496Q287 448 253 421T163 393Q109 393 72 420T26 492Q21 509 21 526V528Q21 541 35 541H123Q136 541 138 527Q140 517 142 512Q151 494 163 494Q177 494 184
512Q188 524 188 547Q188 573 182 586Q176 599 163 599Q151 599 140 591Q135 587 129 587Q122 587 118 592L76 640Q72 644 72 649Q72 657 79 661L146 711Q150 714 149 716T144 718H46Q39 718 35 722T31 733V803Q31 810 35 814T46 818H282Q289 818 293 814T297 803V729Q297
718 289 711L243 670Q238 665 243 662Q261 653 274 636T294 594Q302 567 302 539Z" />
<glyph unicode="&#xb4;" glyph-name="acute" horiz-adv-x="252" d="M17 579T17 589Q17 593 20 597L72 690Q77 700 90 700H219Q225 700 228 698T232 691Q232 686 228 682L154 588Q148 579 136 579H31Q17 579 17 589Z" />
<glyph unicode="&#xb5;" glyph-name="uni00B5" horiz-adv-x="510" d="M294 512T298 516T309 520H467Q474 520 478 516T482 505V15Q482 8 478 4T467 0H309Q302 0 298 4T294 15V33Q294 37 292 38T287 35Q263 4 222 -4Q216 -6 216 -11V-185Q216 -192 212 -196T201
-200H43Q36 -200 32 -196T28 -185V505Q28 512 32 516T43 520H201Q208 520 212 516T216 505V203Q216 180 226 167T255 153Q269 153 279 162T293 186Q294 189 294 194V505Q294 512 298 516Z" />
<glyph unicode="&#xb6;" glyph-name="paragraph" horiz-adv-x="601" d="M558 700Q565 700 569 696T573 685V-185Q573 -192 569 -196T558 -200H442Q435 -200 431 -196T427 -185V553Q427 559 421 559H371Q365 559 365 553V-185Q365 -192 361 -196T350 -200H234Q227
-200 223 -196T219 -185V246Q219 252 213 253Q123 266 69 325T15 475Q15 542 43 592T126 671T254 700H558Z" />
<glyph unicode="&#xb7;" glyph-name="middot" horiz-adv-x="248" d="M83 204T57 230T30 298Q30 340 56 366T124 392Q165 392 191 366T218 298Q218 258 191 231T124 204Q83 204 57 230Z" />
<glyph unicode="&#xb8;" glyph-name="cedilla" horiz-adv-x="181" d="M4 -181T6 -167L14 -104Q15 -94 23 -94Q28 -94 31 -95H36Q47 -95 54 -89T62 -72Q62 -50 24 -18Q17 -12 17 -7Q17 0 29 0H113Q124 0 132 -7Q181 -53 181 -104Q181 -113 177 -131Q167 -166 141
-181T81 -197Q48 -197 16 -185Q4 -181 6 -167Z" />
<glyph unicode="&#xb9;" glyph-name="uni00B9" horiz-adv-x="183" d="M48 819T59 819H152Q159 819 163 815T167 804V414Q167 407 163 403T152 399H64Q57 399 53 403T49 414V712Q49 714 47 716T43 718L31 719Q24 719 20 723T16 734V791Q16 802 27 808L40 815Q48
819 59 819Z" />
<glyph unicode="&#xba;" glyph-name="ordmasculine" horiz-adv-x="330" d="M106 356T68 384T20 465Q13 492 13 532Q13 573 19 601Q29 651 67 679T166 708Q223 708 260 680T308 601Q316 571 316 533Q316 495 308 465Q298 413 261 385T165 356Q106 356 68 384ZM185
457T192 482Q197 502 197 532Q197 561 193 581Q186 608 164 608Q144 608 136 581Q132 566 132 532Q132 498 136 482Q142 457 165 457Q185 457 192 482ZM25 236T21 240T17 251V296Q17 303 21 307T32 311H301Q308 311 312 307T316 296V251Q316 244 312 240T301 236H32Q25
236 21 240Z" />
<glyph unicode="&#xbb;" glyph-name="guillemotright" horiz-adv-x="469" d="M45 107T41 112T41 125L114 277Q115 281 114 285L41 437Q39 443 39 444Q39 449 43 452T53 455H175Q187 455 192 444L261 291Q263 287 263 281Q263 275 261 271L192 118Q187 107 175
107H53Q45 107 41 112ZM221 107T217 112T217 125L290 277Q291 281 290 285L217 437Q215 443 215 444Q215 449 219 452T229 455H351Q363 455 368 444L437 291Q439 287 439 281Q439 275 437 271L368 118Q363 107 351 107H229Q221 107 217 112Z" />
<glyph unicode="&#xbc;" glyph-name="onequarter" horiz-adv-x="796" d="M48 700T59 700H152Q159 700 163 696T167 685V295Q167 288 163 284T152 280H64Q57 280 53 284T49 295V593Q49 595 47 597T43 599L31 600Q24 600 20 604T16 615V672Q16 683 27 689L40 696Q48
700 59 700ZM80 0T80 10Q80 14 83 18L466 690Q471 700 484 700H583Q597 700 597 690Q597 687 594 682L212 10Q207 0 194 0H94Q80 0 80 10ZM775 206T779 202T783 191V114Q783 107 779 103T768 99H756Q750 99 750 93V15Q750 8 746 4T735 0H647Q640 0 636 4T632 15V93Q632
99 626 99H463Q456 99 452 103T448 114V175Q448 183 451 193L532 408Q537 420 550 420H643Q651 420 654 416T655 403L587 213Q585 206 592 206H626Q632 206 632 212V251Q632 258 636 262T647 266H735Q742 266 746 262T750 251V212Q750 206 756 206H768Q775 206
779 202Z" />
<glyph unicode="&#xbd;" glyph-name="onehalf" horiz-adv-x="758" d="M48 700T59 700H152Q159 700 163 696T167 685V295Q167 288 163 284T152 280H64Q57 280 53 284T49 295V593Q49 595 47 597T43 599L31 600Q24 600 20 604T16 615V672Q16 683 27 689L40 696Q48
700 59 700ZM80 0T80 10Q80 14 83 18L466 690Q471 700 484 700H583Q597 700 597 690Q597 687 594 682L212 10Q207 0 194 0H94Q80 0 80 10ZM467 0T463 4T459 15V90Q459 101 467 109L488 130Q547 186 584 227Q624 272 624 298Q624 310 618 317T600 324Q589 324 582
317T575 299V287Q575 280 571 276T560 272H471Q464 272 460 276T456 287V311Q460 364 500 394T602 425Q667 425 705 391T743 295Q743 267 735 245T708 198Q693 178 646 131L625 109Q622 106 623 104T628 101H732Q739 101 743 97T747 86V15Q747 8 743 4T732 0H474Q467
0 463 4Z" />
<glyph unicode="&#xbe;" glyph-name="threequarters" horiz-adv-x="880" d="M302 449T302 421Q302 395 298 378Q287 330 253 303T163 275Q109 275 72 302T26 374Q21 391 21 408V410Q21 423 35 423H123Q136 423 138 409Q140 399 142 394Q151 376 163 376Q177 376
184 394Q188 406 188 429Q188 455 182 468Q176 481 163 481Q151 481 140 473Q135 469 129 469Q122 469 118 474L76 522Q72 526 72 531Q72 539 79 543L146 593Q150 596 149 598T144 600H46Q39 600 35 604T31 615V685Q31 692 35 696T46 700H282Q289 700 293 696T297
685V611Q297 600 289 593L243 552Q238 547 243 544Q261 535 274 518T294 476Q302 449 302 421ZM164 0T164 10Q164 14 167 18L550 690Q555 700 568 700H667Q681 700 681 690Q681 687 678 682L296 10Q291 0 278 0H178Q164 0 164 10ZM859 206T863 202T867 191V114Q867
107 863 103T852 99H840Q834 99 834 93V15Q834 8 830 4T819 0H731Q724 0 720 4T716 15V93Q716 99 710 99H547Q540 99 536 103T532 114V175Q532 183 535 193L616 408Q621 420 634 420H727Q735 420 738 416T739 403L671 213Q669 206 676 206H710Q716 206 716 212V251Q716
258 720 262T731 266H819Q826 266 830 262T834 251V212Q834 206 840 206H852Q859 206 863 202Z" />
<glyph unicode="&#xbf;" glyph-name="questiondown" horiz-adv-x="523" d="M321 505T347 479T374 411Q374 369 348 343T280 317Q239 317 213 343T186 411Q186 452 213 478T280 505Q321 505 347 479ZM362 264T366 260T370 249V236Q370 197 356 168T321 121T268
81Q236 59 221 43T206 6Q206 -15 220 -27T259 -39Q287 -39 303 -25T320 12V16Q320 30 335 30L493 23Q508 23 508 12Q508 -53 476 -103T387 -182T254 -210Q182 -210 129 -184T46 -112T16 -3Q16 42 31 73T66 123T120 166Q153 189 168 206T184 248V249Q184 256 188
260T199 264H355Q362 264 366 260Z" />
<glyph unicode="&#xc0;" glyph-name="Agrave" horiz-adv-x="623" d="M411 0T408 13L391 90Q389 95 385 95H235Q231 95 229 90L213 13Q210 0 196 0H32Q24 0 21 4T19 17L197 687Q200 700 213 700H411Q424 700 427 687L604 17Q605 15 605 12Q605 0 591 0H425Q411
0 408 13ZM261 244Q261 239 267 239H352Q359 239 358 246L313 454Q312 458 309 458T305 454L261 246V244ZM376 773T376 769Q376 759 362 759H257Q245 759 239 768L165 862Q161 866 161 871Q161 875 164 877T174 880H303Q316 880 321 870L373 777Q376 773 376 769Z"
/>
<glyph unicode="&#xc1;" glyph-name="Aacute" horiz-adv-x="623" d="M411 0T408 13L391 90Q389 95 385 95H235Q231 95 229 90L213 13Q210 0 196 0H32Q24 0 21 4T19 17L197 687Q200 700 213 700H411Q424 700 427 687L604 17Q605 15 605 12Q605 0 591 0H425Q411
0 408 13ZM261 244Q261 239 267 239H352Q359 239 358 246L313 454Q312 458 309 458T305 454L261 246V244ZM230 759T230 769Q230 773 233 777L285 870Q290 880 303 880H432Q438 880 441 878T445 871Q445 866 441 862L367 768Q361 759 349 759H244Q230 759 230 769Z"
/>
<glyph unicode="&#xc2;" glyph-name="Acircumflex" horiz-adv-x="623" d="M411 0T408 13L391 90Q389 95 385 95H235Q231 95 229 90L213 13Q210 0 196 0H32Q24 0 21 4T19 17L197 687Q200 700 213 700H411Q424 700 427 687L604 17Q605 15 605 12Q605 0 591 0H425Q411
0 408 13ZM261 244Q261 239 267 239H352Q359 239 358 246L313 454Q312 458 309 458T305 454L261 246V244ZM143 751T140 753T136 760Q136 765 139 769L203 870Q209 880 221 880H396Q408 880 414 870L480 769Q483 765 483 760Q483 751 470 751H354Q341 751 336 762L314
806Q312 809 310 809T306 806L284 762Q278 751 266 751H149Q143 751 140 753Z" />
<glyph unicode="&#xc3;" glyph-name="Atilde" horiz-adv-x="623" d="M411 0T408 13L391 90Q389 95 385 95H235Q231 95 229 90L213 13Q210 0 196 0H32Q24 0 21 4T19 17L197 687Q200 700 213 700H411Q424 700 427 687L604 17Q605 15 605 12Q605 0 591 0H425Q411
0 408 13ZM261 244Q261 239 267 239H352Q359 239 358 246L313 454Q312 458 309 458T305 454L261 246V244ZM360 742T346 746T315 758Q311 760 301 765T284 771T270 773Q247 773 230 756Q224 749 218 749Q213 749 209 753L154 803Q148 809 148 815Q148 817 150 823Q164
857 192 876T256 896Q276 896 293 891T331 874Q334 872 343 868T359 861T375 858Q399 858 412 875Q418 882 424 882Q429 882 433 878L484 829Q490 823 490 816L488 808Q472 776 443 759T378 742Q360 742 346 746Z" />
<glyph unicode="&#xc4;" glyph-name="Adieresis" horiz-adv-x="623" d="M411 0T408 13L391 90Q389 95 385 95H235Q231 95 229 90L213 13Q210 0 196 0H32Q24 0 21 4T19 17L197 687Q200 700 213 700H411Q424 700 427 687L604 17Q605 15 605 12Q605 0 591 0H425Q411
0 408 13ZM261 244Q261 239 267 239H352Q359 239 358 246L313 454Q312 458 309 458T305 454L261 246V244ZM376 740T350 766T323 834Q323 876 349 902T417 928Q458 928 484 902T511 834Q511 794 484 767T417 740Q376 740 350 766ZM163 740T137 766T110 834Q110 876
136 902T204 928Q245 928 271 902T298 834Q298 794 271 767T204 740Q163 740 137 766Z" />
<glyph unicode="&#xc5;" glyph-name="Aring" horiz-adv-x="623" d="M411 0T408 13L391 90Q389 95 385 95H235Q231 95 229 90L213 13Q210 0 196 0H32Q24 0 21 4T19 17L197 687Q200 700 213 700H411Q424 700 427 687L604 17Q605 15 605 12Q605 0 591 0H425Q411 0
408 13ZM261 244Q261 239 267 239H352Q359 239 358 246L313 454Q312 458 309 458T305 454L261 246V244ZM253 732T215 770T176 867Q176 924 214 962T311 1001Q369 1001 407 963T446 867Q446 809 408 771T311 732Q253 732 215 770ZM327 827T339 839T351 867Q351 884
340 896T311 908Q294 908 283 896T271 867Q271 851 282 839T311 827Q327 827 339 839Z" />
<glyph unicode="&#xc6;" glyph-name="AE" horiz-adv-x="890" d="M869 547T865 543T854 539H608Q602 539 602 533V439Q602 433 608 433H751Q758 433 762 429T766 418V288Q766 281 762 277T751 273H608Q602 273 602 267V167Q602 161 608 161H854Q861 161 865 157T869
146V15Q869 8 865 4T854 0H429Q422 0 418 4T414 15V89Q414 95 408 95H262Q256 95 255 90L223 12Q219 0 205 0H34Q21 0 21 10L23 18L323 689Q327 700 340 700H854Q861 700 865 696T869 685V554Q869 547 865 543ZM316 239T324 239H408Q414 239 414 245V458Q414 462
412 462T407 459L319 246Q316 239 324 239Z" />
<glyph unicode="&#xc7;" glyph-name="Ccedilla" horiz-adv-x="543" d="M520 471T516 469T505 466L347 459Q332 459 332 473V484Q332 513 316 530T273 547Q246 547 230 530T213 484V216Q213 188 229 171T273 153Q300 153 316 170T332 216V228Q332 242 347 242L505
235Q512 235 516 231T520 220Q520 132 470 73T334 -3Q331 -3 331 -5T332 -10Q367 -51 367 -93Q367 -103 363 -121Q345 -186 266 -186Q231 -186 202 -175Q190 -171 192 -157L200 -94Q201 -86 205 -84T217 -84Q219 -85 224 -85Q234 -85 241 -79T248 -62Q248 -37 204
-2L197 1Q117 21 71 81T25 228V475Q25 545 56 598T143 679T273 708Q347 708 402 680T489 601T520 482V475Q520 471 516 469Z" />
<glyph unicode="&#xc8;" glyph-name="Egrave" horiz-adv-x="507" d="M486 547T482 543T471 539H227Q221 539 221 533V439Q221 433 227 433H368Q375 433 379 429T383 418V288Q383 281 379 277T368 273H227Q221 273 221 267V167Q221 161 227 161H471Q478 161 482
157T486 146V15Q486 8 482 4T471 0H48Q41 0 37 4T33 15V685Q33 692 37 696T48 700H471Q478 700 482 696T486 685V554Q486 547 482 543ZM324 773T324 769Q324 759 310 759H205Q193 759 187 768L113 862Q109 866 109 871Q109 875 112 877T122 880H251Q264 880 269
870L321 777Q324 773 324 769Z" />
<glyph unicode="&#xc9;" glyph-name="Eacute" horiz-adv-x="507" d="M486 547T482 543T471 539H227Q221 539 221 533V439Q221 433 227 433H368Q375 433 379 429T383 418V288Q383 281 379 277T368 273H227Q221 273 221 267V167Q221 161 227 161H471Q478 161 482
157T486 146V15Q486 8 482 4T471 0H48Q41 0 37 4T33 15V685Q33 692 37 696T48 700H471Q478 700 482 696T486 685V554Q486 547 482 543ZM179 759T179 769Q179 773 182 777L234 870Q239 880 252 880H381Q387 880 390 878T394 871Q394 866 390 862L316 768Q310 759
298 759H193Q179 759 179 769Z" />
<glyph unicode="&#xca;" glyph-name="Ecircumflex" horiz-adv-x="507" d="M486 547T482 543T471 539H227Q221 539 221 533V439Q221 433 227 433H368Q375 433 379 429T383 418V288Q383 281 379 277T368 273H227Q221 273 221 267V167Q221 161 227 161H471Q478 161
482 157T486 146V15Q486 8 482 4T471 0H48Q41 0 37 4T33 15V685Q33 692 37 696T48 700H471Q478 700 482 696T486 685V554Q486 547 482 543ZM91 751T88 753T84 760Q84 765 87 769L151 870Q157 880 169 880H344Q356 880 362 870L428 769Q431 765 431 760Q431 751
418 751H302Q289 751 284 762L262 806Q260 809 258 809T254 806L232 762Q226 751 214 751H97Q91 751 88 753Z" />
<glyph unicode="&#xcb;" glyph-name="Edieresis" horiz-adv-x="507" d="M486 547T482 543T471 539H227Q221 539 221 533V439Q221 433 227 433H368Q375 433 379 429T383 418V288Q383 281 379 277T368 273H227Q221 273 221 267V167Q221 161 227 161H471Q478 161
482 157T486 146V15Q486 8 482 4T471 0H48Q41 0 37 4T33 15V685Q33 692 37 696T48 700H471Q478 700 482 696T486 685V554Q486 547 482 543ZM324 740T298 766T271 834Q271 876 297 902T365 928Q406 928 432 902T459 834Q459 794 432 767T365 740Q324 740 298 766ZM111
740T85 766T58 834Q58 876 84 902T152 928Q193 928 219 902T246 834Q246 794 219 767T152 740Q111 740 85 766Z" />
<glyph unicode="&#xcc;" glyph-name="Igrave" horiz-adv-x="253" d="M41 0T37 4T33 15V685Q33 692 37 696T48 700H206Q213 700 217 696T221 685V15Q221 8 217 4T206 0H48Q41 0 37 4ZM192 773T192 769Q192 759 178 759H73Q61 759 55 768L-19 862Q-23 866 -23 871Q-23
875 -20 877T-10 880H119Q132 880 137 870L189 777Q192 773 192 769Z" />
<glyph unicode="&#xcd;" glyph-name="Iacute" horiz-adv-x="253" d="M41 0T37 4T33 15V685Q33 692 37 696T48 700H206Q213 700 217 696T221 685V15Q221 8 217 4T206 0H48Q41 0 37 4ZM46 759T46 769Q46 773 49 777L101 870Q106 880 119 880H248Q254 880 257 878T261
871Q261 866 257 862L183 768Q177 759 165 759H60Q46 759 46 769Z" />
<glyph unicode="&#xce;" glyph-name="Icircumflex" horiz-adv-x="253" d="M41 0T37 4T33 15V685Q33 692 37 696T48 700H206Q213 700 217 696T221 685V15Q221 8 217 4T206 0H48Q41 0 37 4ZM-41 751T-44 753T-48 760Q-48 765 -45 769L19 870Q25 880 37 880H212Q224
880 230 870L296 769Q299 765 299 760Q299 751 286 751H170Q157 751 152 762L130 806Q128 809 126 809T122 806L100 762Q94 751 82 751H-35Q-41 751 -44 753Z" />
<glyph unicode="&#xcf;" glyph-name="Idieresis" horiz-adv-x="253" d="M41 0T37 4T33 15V685Q33 692 37 696T48 700H206Q213 700 217 696T221 685V15Q221 8 217 4T206 0H48Q41 0 37 4ZM192 740T166 766T139 834Q139 876 165 902T233 928Q274 928 300 902T327
834Q327 794 300 767T233 740Q192 740 166 766ZM-21 740T-47 766T-74 834Q-74 876 -48 902T20 928Q61 928 87 902T114 834Q114 794 87 767T20 740Q-21 740 -47 766Z" />
<glyph unicode="&#xd0;" glyph-name="Eth" horiz-adv-x="583" d="M381 700T437 674T524 599T555 488V213Q555 150 524 102T437 27T307 0H80Q73 0 69 4T65 15V299Q65 305 59 305H48Q41 305 37 309T33 320V405Q33 412 37 416T48 420H59Q65 420 65 426V685Q65 692
69 696T80 700H307Q381 700 437 674ZM367 466Q367 499 351 519T307 539H259Q253 539 253 533V426Q253 420 259 420H289Q296 420 300 416T304 405V320Q304 313 300 309T289 305H259Q253 305 253 299V167Q253 161 259 161L308 162Q333 162 349 182T367 235V466Z"
/>
<glyph unicode="&#xd1;" glyph-name="Ntilde" horiz-adv-x="593" d="M374 692T378 696T389 700H546Q553 700 557 696T561 685V15Q561 8 557 4T546 0H381Q368 0 364 11L225 337Q224 341 221 341T218 336L220 15Q220 8 216 4T205 0H48Q41 0 37 4T33 15V685Q33 692
37 696T48 700H212Q225 700 229 689L368 363Q369 359 372 359T375 365L374 685Q374 692 378 696ZM339 742T325 746T294 758Q290 760 280 765T263 771T249 773Q226 773 209 756Q203 749 197 749Q192 749 188 753L133 803Q127 809 127 815Q127 817 129 823Q143 857
171 876T235 896Q255 896 272 891T310 874Q313 872 322 868T338 861T354 858Q378 858 391 875Q397 882 403 882Q408 882 412 878L463 829Q469 823 469 816L467 808Q451 776 422 759T357 742Q339 742 325 746Z" />
<glyph unicode="&#xd2;" glyph-name="Ograve" horiz-adv-x="553" d="M201 -10T144 20T56 104T25 231V469Q25 541 56 595T144 678T276 708Q351 708 408 679T497 595T528 469V231Q528 159 497 105T408 20T276 -10Q201 -10 144 20ZM305 151T322 171T340 224V474Q340
507 323 527T276 547Q248 547 231 527T213 474V224Q213 191 230 171T276 151Q305 151 322 171ZM341 773T341 769Q341 759 327 759H222Q210 759 204 768L130 862Q126 866 126 871Q126 875 129 877T139 880H268Q281 880 286 870L338 777Q341 773 341 769Z" />
<glyph unicode="&#xd3;" glyph-name="Oacute" horiz-adv-x="553" d="M201 -10T144 20T56 104T25 231V469Q25 541 56 595T144 678T276 708Q351 708 408 679T497 595T528 469V231Q528 159 497 105T408 20T276 -10Q201 -10 144 20ZM305 151T322 171T340 224V474Q340
507 323 527T276 547Q248 547 231 527T213 474V224Q213 191 230 171T276 151Q305 151 322 171ZM196 759T196 769Q196 773 199 777L251 870Q256 880 269 880H398Q404 880 407 878T411 871Q411 866 407 862L333 768Q327 759 315 759H210Q196 759 196 769Z" />
<glyph unicode="&#xd4;" glyph-name="Ocircumflex" horiz-adv-x="553" d="M201 -10T144 20T56 104T25 231V469Q25 541 56 595T144 678T276 708Q351 708 408 679T497 595T528 469V231Q528 159 497 105T408 20T276 -10Q201 -10 144 20ZM305 151T322 171T340 224V474Q340
507 323 527T276 547Q248 547 231 527T213 474V224Q213 191 230 171T276 151Q305 151 322 171ZM108 751T105 753T101 760Q101 765 104 769L168 870Q174 880 186 880H361Q373 880 379 870L445 769Q448 765 448 760Q448 751 435 751H319Q306 751 301 762L279 806Q277
809 275 809T271 806L249 762Q243 751 231 751H114Q108 751 105 753Z" />
<glyph unicode="&#xd5;" glyph-name="Otilde" horiz-adv-x="553" d="M201 -10T144 20T56 104T25 231V469Q25 541 56 595T144 678T276 708Q351 708 408 679T497 595T528 469V231Q528 159 497 105T408 20T276 -10Q201 -10 144 20ZM305 151T322 171T340 224V474Q340
507 323 527T276 547Q248 547 231 527T213 474V224Q213 191 230 171T276 151Q305 151 322 171ZM325 742T311 746T280 758Q276 760 266 765T249 771T235 773Q212 773 195 756Q189 749 183 749Q178 749 174 753L119 803Q113 809 113 815Q113 817 115 823Q129 857
157 876T221 896Q241 896 258 891T296 874Q299 872 308 868T324 861T340 858Q364 858 377 875Q383 882 389 882Q394 882 398 878L449 829Q455 823 455 816L453 808Q437 776 408 759T343 742Q325 742 311 746Z" />
<glyph unicode="&#xd6;" glyph-name="Odieresis" horiz-adv-x="553" d="M201 -10T144 20T56 104T25 231V469Q25 541 56 595T144 678T276 708Q351 708 408 679T497 595T528 469V231Q528 159 497 105T408 20T276 -10Q201 -10 144 20ZM305 151T322 171T340 224V474Q340
507 323 527T276 547Q248 547 231 527T213 474V224Q213 191 230 171T276 151Q305 151 322 171ZM341 740T315 766T288 834Q288 876 314 902T382 928Q423 928 449 902T476 834Q476 794 449 767T382 740Q341 740 315 766ZM128 740T102 766T75 834Q75 876 101 902T169
928Q210 928 236 902T263 834Q263 794 236 767T169 740Q128 740 102 766Z" />
<glyph unicode="&#xd7;" glyph-name="multiply" horiz-adv-x="440" d="M414 411T414 404Q414 398 409 393L330 314Q328 312 328 310T330 306L409 227Q414 223 414 216Q414 210 409 205L325 121Q320 116 314 116Q310 116 303 121L224 200Q222 202 220 202T216 200L137
121Q132 116 126 116Q122 116 115 121L31 205Q26 212 26 216Q26 222 31 227L110 306Q112 308 112 310T110 314L31 393Q26 400 26 404Q26 410 31 415L115 499Q120 504 126 504Q133 504 137 499L216 420Q218 418 220 418T224 420L303 499Q308 504 314 504Q321 504
325 499L409 415Q414 411 414 404Z" />
<glyph unicode="&#xd8;" glyph-name="Oslash" horiz-adv-x="553" d="M550 679T550 674Q550 670 547 665L502 595Q499 592 501 587Q528 538 528 469V231Q528 159 497 105T408 20T276 -10Q218 -10 171 8Q166 10 163 5L127 -49Q123 -56 116 -56Q112 -56 107 -53L9
16Q2 20 2 27Q2 32 5 36L50 106Q53 109 51 114Q25 164 25 231V469Q25 541 56 595T144 678T276 708Q332 708 380 691Q385 689 388 694L424 749Q428 756 436 756Q440 756 445 753L543 685Q550 679 550 674ZM340 474Q340 507 323 527T276 547Q248 547 231 527T213
474V224Q213 191 230 171T276 151Q305 151 322 171T340 224V474Z" />
<glyph unicode="&#xd9;" glyph-name="Ugrave" horiz-adv-x="549" d="M202 -8T147 21T61 103T30 226V685Q30 692 34 696T45 700H203Q210 700 214 696T218 685V217Q218 188 233 171T275 153Q300 153 316 170T332 217V685Q332 692 336 696T347 700H505Q512 700 516
696T520 685V226Q520 156 490 103T404 21T275 -8Q202 -8 147 21ZM340 773T340 769Q340 759 326 759H221Q209 759 203 768L129 862Q125 866 125 871Q125 875 128 877T138 880H267Q280 880 285 870L337 777Q340 773 340 769Z" />
<glyph unicode="&#xda;" glyph-name="Uacute" horiz-adv-x="549" d="M202 -8T147 21T61 103T30 226V685Q30 692 34 696T45 700H203Q210 700 214 696T218 685V217Q218 188 233 171T275 153Q300 153 316 170T332 217V685Q332 692 336 696T347 700H505Q512 700 516
696T520 685V226Q520 156 490 103T404 21T275 -8Q202 -8 147 21ZM195 759T195 769Q195 773 198 777L250 870Q255 880 268 880H397Q403 880 406 878T410 871Q410 866 406 862L332 768Q326 759 314 759H209Q195 759 195 769Z" />
<glyph unicode="&#xdb;" glyph-name="Ucircumflex" horiz-adv-x="549" d="M202 -8T147 21T61 103T30 226V685Q30 692 34 696T45 700H203Q210 700 214 696T218 685V217Q218 188 233 171T275 153Q300 153 316 170T332 217V685Q332 692 336 696T347 700H505Q512 700
516 696T520 685V226Q520 156 490 103T404 21T275 -8Q202 -8 147 21ZM107 751T104 753T100 760Q100 765 103 769L167 870Q173 880 185 880H360Q372 880 378 870L444 769Q447 765 447 760Q447 751 434 751H318Q305 751 300 762L278 806Q276 809 274 809T270 806L248
762Q242 751 230 751H113Q107 751 104 753Z" />
<glyph unicode="&#xdc;" glyph-name="Udieresis" horiz-adv-x="549" d="M202 -8T147 21T61 103T30 226V685Q30 692 34 696T45 700H203Q210 700 214 696T218 685V217Q218 188 233 171T275 153Q300 153 316 170T332 217V685Q332 692 336 696T347 700H505Q512 700
516 696T520 685V226Q520 156 490 103T404 21T275 -8Q202 -8 147 21ZM340 740T314 766T287 834Q287 876 313 902T381 928Q422 928 448 902T475 834Q475 794 448 767T381 740Q340 740 314 766ZM127 740T101 766T74 834Q74 876 100 902T168 928Q209 928 235 902T262
834Q262 794 235 767T168 740Q127 740 101 766Z" />
<glyph unicode="&#xdd;" glyph-name="Yacute" horiz-adv-x="580" d="M203 2T199 6T195 17V242Q195 248 194 250L22 683Q21 686 21 690Q21 700 34 700H203Q209 700 214 697T220 687L286 469Q288 465 290 465T294 469L359 687Q360 693 365 696T376 700H546Q554 700
557 696T558 683L384 250Q383 248 383 242V17Q383 10 379 6T368 2H210Q203 2 199 6ZM209 759T209 769Q209 773 212 777L264 870Q269 880 282 880H411Q417 880 420 878T424 871Q424 866 420 862L346 768Q340 759 328 759H223Q209 759 209 769Z" />
<glyph unicode="&#xde;" glyph-name="Thorn" horiz-adv-x="535" d="M364 572T414 544T492 464T520 347Q520 282 491 233T412 156T299 128H224Q218 128 218 122V15Q218 8 214 4T203 0H45Q38 0 34 4T30 15V685Q30 692 34 696T45 700H203Q210 700 214 696T218 685V578Q218
572 224 572H299Q364 572 414 544ZM297 277T315 293T333 343Q333 376 315 393T267 411H224Q218 411 218 405V283Q218 277 224 277H267Q297 277 315 293Z" />
<glyph unicode="&#xdf;" glyph-name="germandbls" horiz-adv-x="534" d="M37 1T33 5T29 16V467Q29 582 89 645T261 708Q333 708 387 684T470 616T500 511Q500 470 485 440T439 388Q434 385 439 380Q474 356 494 313T514 213Q514 111 448 56T261 0Q247 0 247 15V145Q247
152 251 156T262 160H271Q295 160 311 180T328 233Q328 267 312 286T271 306H262Q255 306 251 310T247 321V437Q247 444 251 448T262 452H268Q286 452 300 466T314 502Q314 521 303 534T269 548Q247 548 232 534T217 492V15Q217 8 213 4T202 0L44 1Q37 1 33 5Z"
/>
<glyph unicode="&#xe0;" glyph-name="agrave" horiz-adv-x="504" d="M312 528T365 506T448 445T478 358V15Q478 8 474 4T463 0H305Q298 0 294 4T290 15V42Q290 46 288 46T283 43Q250 -8 167 -8Q99 -8 56 27T12 145Q12 233 64 268T221 303H284Q290 303 290 309V329Q290
346 279 356T247 367Q234 367 224 362T209 347Q206 340 202 337T192 335L33 346Q18 348 18 359Q21 409 51 447T132 507T246 528Q312 528 365 506ZM260 125T275 137T290 170V189Q290 195 284 195H250Q228 195 216 186T203 159Q203 143 212 134T238 125Q260 125 275
137ZM317 593T317 589Q317 579 303 579H198Q186 579 180 588L106 682Q102 686 102 691Q102 695 105 697T115 700H244Q257 700 262 690L314 597Q317 593 317 589Z" />
<glyph unicode="&#xe1;" glyph-name="aacute" horiz-adv-x="504" d="M312 528T365 506T448 445T478 358V15Q478 8 474 4T463 0H305Q298 0 294 4T290 15V42Q290 46 288 46T283 43Q250 -8 167 -8Q99 -8 56 27T12 145Q12 233 64 268T221 303H284Q290 303 290 309V329Q290
346 279 356T247 367Q234 367 224 362T209 347Q206 340 202 337T192 335L33 346Q18 348 18 359Q21 409 51 447T132 507T246 528Q312 528 365 506ZM260 125T275 137T290 170V189Q290 195 284 195H250Q228 195 216 186T203 159Q203 143 212 134T238 125Q260 125 275
137ZM172 579T172 589Q172 593 175 597L227 690Q232 700 245 700H374Q380 700 383 698T387 691Q387 686 383 682L309 588Q303 579 291 579H186Q172 579 172 589Z" />
<glyph unicode="&#xe2;" glyph-name="acircumflex" horiz-adv-x="504" d="M312 528T365 506T448 445T478 358V15Q478 8 474 4T463 0H305Q298 0 294 4T290 15V42Q290 46 288 46T283 43Q250 -8 167 -8Q99 -8 56 27T12 145Q12 233 64 268T221 303H284Q290 303 290
309V329Q290 346 279 356T247 367Q234 367 224 362T209 347Q206 340 202 337T192 335L33 346Q18 348 18 359Q21 409 51 447T132 507T246 528Q312 528 365 506ZM260 125T275 137T290 170V189Q290 195 284 195H250Q228 195 216 186T203 159Q203 143 212 134T238 125Q260
125 275 137ZM84 571T81 573T77 580Q77 585 80 589L144 690Q150 700 162 700H337Q349 700 355 690L421 589Q424 585 424 580Q424 571 411 571H295Q282 571 277 582L255 626Q253 629 251 629T247 626L225 582Q219 571 207 571H90Q84 571 81 573Z" />
<glyph unicode="&#xe3;" glyph-name="atilde" horiz-adv-x="504" d="M312 528T365 506T448 445T478 358V15Q478 8 474 4T463 0H305Q298 0 294 4T290 15V42Q290 46 288 46T283 43Q250 -8 167 -8Q99 -8 56 27T12 145Q12 233 64 268T221 303H284Q290 303 290 309V329Q290
346 279 356T247 367Q234 367 224 362T209 347Q206 340 202 337T192 335L33 346Q18 348 18 359Q21 409 51 447T132 507T246 528Q312 528 365 506ZM260 125T275 137T290 170V189Q290 195 284 195H250Q228 195 216 186T203 159Q203 143 212 134T238 125Q260 125 275
137ZM301 562T287 566T256 578Q252 580 242 585T225 591T211 593Q188 593 171 576Q165 569 159 569Q154 569 150 573L95 623Q89 629 89 635Q89 637 91 643Q105 677 133 696T197 716Q217 716 234 711T272 694Q275 692 284 688T300 681T316 678Q340 678 353 695Q359
702 365 702Q370 702 374 698L425 649Q431 643 431 636L429 628Q413 596 384 579T319 562Q301 562 287 566Z" />
<glyph unicode="&#xe4;" glyph-name="adieresis" horiz-adv-x="504" d="M312 528T365 506T448 445T478 358V15Q478 8 474 4T463 0H305Q298 0 294 4T290 15V42Q290 46 288 46T283 43Q250 -8 167 -8Q99 -8 56 27T12 145Q12 233 64 268T221 303H284Q290 303 290 309V329Q290
346 279 356T247 367Q234 367 224 362T209 347Q206 340 202 337T192 335L33 346Q18 348 18 359Q21 409 51 447T132 507T246 528Q312 528 365 506ZM260 125T275 137T290 170V189Q290 195 284 195H250Q228 195 216 186T203 159Q203 143 212 134T238 125Q260 125 275
137ZM317 560T291 586T264 654Q264 696 290 722T358 748Q399 748 425 722T452 654Q452 614 425 587T358 560Q317 560 291 586ZM104 560T78 586T51 654Q51 696 77 722T145 748Q186 748 212 722T239 654Q239 614 212 587T145 560Q104 560 78 586Z" />
<glyph unicode="&#xe5;" glyph-name="aring" horiz-adv-x="504" d="M312 528T365 506T448 445T478 358V15Q478 8 474 4T463 0H305Q298 0 294 4T290 15V42Q290 46 288 46T283 43Q250 -8 167 -8Q99 -8 56 27T12 145Q12 233 64 268T221 303H284Q290 303 290 309V329Q290
346 279 356T247 367Q234 367 224 362T209 347Q206 340 202 337T192 335L33 346Q18 348 18 359Q21 409 51 447T132 507T246 528Q312 528 365 506ZM260 125T275 137T290 170V189Q290 195 284 195H250Q228 195 216 186T203 159Q203 143 212 134T238 125Q260 125 275
137ZM194 552T156 590T117 687Q117 744 155 782T252 821Q310 821 348 783T387 687Q387 629 349 591T252 552Q194 552 156 590ZM268 647T280 659T292 687Q292 704 281 716T252 728Q235 728 224 716T212 687Q212 671 223 659T252 647Q268 647 280 659Z" />
<glyph unicode="&#xe6;" glyph-name="ae" horiz-adv-x="777" d="M117 -8T65 29T12 152Q12 234 64 269T221 305H284Q290 305 290 311V329Q290 346 279 356T247 367Q219 367 209 348Q206 341 202 338T192 336L32 348Q17 350 18 364Q22 412 52 449T131 507T236 528Q282
528 320 514T385 474Q389 470 393 474Q416 497 453 512T535 528Q617 528 677 483T751 361Q759 310 760 218Q760 203 745 203H492Q486 203 487 197L488 193Q488 188 489 185Q501 151 546 151Q582 151 604 175Q614 185 624 180L734 132Q748 125 742 112Q719 54 670
23T549 -8Q490 -8 446 11T388 58Q385 64 384 62Q369 33 318 13T197 -8Q117 -8 65 29ZM486 305T491 305H564Q569 305 569 311L567 331Q563 348 553 357T528 367Q513 367 503 358T488 331L486 311Q486 305 491 305ZM259 123T274 136T290 168V197Q290 203 284 203H249Q227
203 215 192T202 161Q202 144 211 134T239 123Q259 123 274 136Z" />
<glyph unicode="&#xe7;" glyph-name="ccedilla" horiz-adv-x="502" d="M296 198T296 202Q299 218 313 216L470 202Q484 200 484 186L481 163Q471 98 430 56T323 -1Q319 -2 319 -4T321 -9Q358 -51 358 -94Q358 -103 354 -121Q336 -186 257 -186Q222 -186 193 -175Q181
-171 183 -157L191 -94Q192 -86 196 -84T208 -84Q210 -85 215 -85Q225 -85 232 -79T239 -62Q239 -38 198 -5Q196 -2 191 -1Q125 13 84 54T30 160Q20 201 20 262Q20 313 30 363Q44 439 104 483T256 528Q345 528 405 485T480 368Q484 346 485 335Q485 321 471 319L314
304H312Q300 304 298 318Q298 328 295 335Q285 367 255 367Q225 367 215 332Q209 309 209 261Q209 208 216 186Q225 153 255 153Q287 153 294 188Q296 198 296 202Z" />
<glyph unicode="&#xe8;" glyph-name="egrave" horiz-adv-x="504" d="M489 284T489 263L488 228Q488 213 473 213H218Q213 213 213 209Q213 198 217 186Q228 152 262 152Q294 152 306 176Q314 189 325 186L468 159Q475 158 478 153T479 141Q454 68 400 30T266 -8Q165
-8 108 34T32 160Q22 203 22 260Q20 303 28 349Q41 431 101 479T253 528Q319 528 370 502T452 430T487 324Q489 284 489 263ZM223 367T215 331L213 314Q213 308 218 308H292Q297 308 297 314L295 331Q292 348 282 357T255 367Q223 367 215 331ZM317 593T317 589Q317
579 303 579H198Q186 579 180 588L106 682Q102 686 102 691Q102 695 105 697T115 700H244Q257 700 262 690L314 597Q317 593 317 589Z" />
<glyph unicode="&#xe9;" glyph-name="eacute" horiz-adv-x="504" d="M489 284T489 263L488 228Q488 213 473 213H218Q213 213 213 209Q213 198 217 186Q228 152 262 152Q294 152 306 176Q314 189 325 186L468 159Q475 158 478 153T479 141Q454 68 400 30T266 -8Q165
-8 108 34T32 160Q22 203 22 260Q20 303 28 349Q41 431 101 479T253 528Q319 528 370 502T452 430T487 324Q489 284 489 263ZM223 367T215 331L213 314Q213 308 218 308H292Q297 308 297 314L295 331Q292 348 282 357T255 367Q223 367 215 331ZM171 579T171 589Q171
593 174 597L226 690Q231 700 244 700H373Q379 700 382 698T386 691Q386 686 382 682L308 588Q302 579 290 579H185Q171 579 171 589Z" />
<glyph unicode="&#xea;" glyph-name="ecircumflex" horiz-adv-x="504" d="M489 284T489 263L488 228Q488 213 473 213H218Q213 213 213 209Q213 198 217 186Q228 152 262 152Q294 152 306 176Q314 189 325 186L468 159Q475 158 478 153T479 141Q454 68 400 30T266
-8Q165 -8 108 34T32 160Q22 203 22 260Q20 303 28 349Q41 431 101 479T253 528Q319 528 370 502T452 430T487 324Q489 284 489 263ZM223 367T215 331L213 314Q213 308 218 308H292Q297 308 297 314L295 331Q292 348 282 357T255 367Q223 367 215 331ZM84 571T81
573T77 580Q77 585 80 589L144 690Q150 700 162 700H337Q349 700 355 690L421 589Q424 585 424 580Q424 571 411 571H295Q282 571 277 582L255 626Q253 629 251 629T247 626L225 582Q219 571 207 571H90Q84 571 81 573Z" />
<glyph unicode="&#xeb;" glyph-name="edieresis" horiz-adv-x="504" d="M489 284T489 263L488 228Q488 213 473 213H218Q213 213 213 209Q213 198 217 186Q228 152 262 152Q294 152 306 176Q314 189 325 186L468 159Q475 158 478 153T479 141Q454 68 400 30T266
-8Q165 -8 108 34T32 160Q22 203 22 260Q20 303 28 349Q41 431 101 479T253 528Q319 528 370 502T452 430T487 324Q489 284 489 263ZM223 367T215 331L213 314Q213 308 218 308H292Q297 308 297 314L295 331Q292 348 282 357T255 367Q223 367 215 331ZM317 560T291
586T264 654Q264 696 290 722T358 748Q399 748 425 722T452 654Q452 614 425 587T358 560Q317 560 291 586ZM104 560T78 586T51 654Q51 696 77 722T145 748Q186 748 212 722T239 654Q239 614 212 587T145 560Q104 560 78 586Z" />
<glyph unicode="&#xec;" glyph-name="igrave" horiz-adv-x="229" d="M29 0T25 4T21 15V505Q21 512 25 516T36 520H194Q201 520 205 516T209 505V15Q209 8 205 4T194 0H36Q29 0 25 4ZM180 593T180 589Q180 579 166 579H61Q49 579 43 588L-31 682Q-35 686 -35 691Q-35
695 -32 697T-22 700H107Q120 700 125 690L177 597Q180 593 180 589Z" />
<glyph unicode="&#xed;" glyph-name="iacute" horiz-adv-x="229" d="M29 0T25 4T21 15V505Q21 512 25 516T36 520H194Q201 520 205 516T209 505V15Q209 8 205 4T194 0H36Q29 0 25 4ZM34 579T34 589Q34 593 37 597L89 690Q94 700 107 700H236Q242 700 245 698T249
691Q249 686 245 682L171 588Q165 579 153 579H48Q34 579 34 589Z" />
<glyph unicode="&#xee;" glyph-name="icircumflex" horiz-adv-x="229" d="M29 0T25 4T21 15V505Q21 512 25 516T36 520H194Q201 520 205 516T209 505V15Q209 8 205 4T194 0H36Q29 0 25 4ZM-53 571T-56 573T-60 580Q-60 585 -57 589L7 690Q13 700 25 700H200Q212
700 218 690L284 589Q287 585 287 580Q287 571 274 571H158Q145 571 140 582L118 626Q116 629 114 629T110 626L88 582Q82 571 70 571H-47Q-53 571 -56 573Z" />
<glyph unicode="&#xef;" glyph-name="idieresis" horiz-adv-x="229" d="M29 0T25 4T21 15V505Q21 512 25 516T36 520H194Q201 520 205 516T209 505V15Q209 8 205 4T194 0H36Q29 0 25 4ZM180 560T154 586T127 654Q127 696 153 722T221 748Q262 748 288 722T315
654Q315 614 288 587T221 560Q180 560 154 586ZM-33 560T-59 586T-86 654Q-86 696 -60 722T8 748Q49 748 75 722T102 654Q102 614 75 587T8 560Q-33 560 -59 586Z" />
<glyph unicode="&#xf0;" glyph-name="eth" horiz-adv-x="512" d="M487 291T487 234Q487 190 477 150Q463 76 404 34T254 -8Q163 -8 104 34T30 150Q20 189 20 234Q20 275 30 318Q37 370 73 407T159 452Q191 461 226 461Q248 461 268 456Q271 455 273 456T273 461Q259
492 246 513Q244 519 239 517L152 496L147 495Q137 495 134 507L120 564L119 569Q119 580 131 583L188 596Q194 598 191 604L134 682Q130 686 130 691Q130 695 133 697T143 700H300Q310 700 318 691Q342 657 352 641Q355 636 360 638L435 656L440 657Q450 657 453
645L467 587L468 582Q468 572 456 569L411 558Q405 556 408 548Q466 444 478 342Q487 291 487 234ZM292 180T295 195T298 231Q298 251 295 266T291 285Q281 317 254 317Q240 317 230 309T215 285Q209 254 209 231Q209 211 212 196T216 176Q220 161 230 152T254
143Q267 143 276 152T291 176Q292 180 295 195Z" />
<glyph unicode="&#xf1;" glyph-name="ntilde" horiz-adv-x="507" d="M398 528T440 480T482 345V15Q482 8 478 4T467 0H309Q302 0 298 4T294 15V318Q294 340 284 353T256 367Q237 367 227 354T216 318V15Q216 8 212 4T201 0H43Q36 0 32 4T28 15V505Q28 512 32 516T43
520H201Q208 520 212 516T216 505V480Q216 476 218 476T225 480Q258 528 323 528Q398 528 440 480ZM308 562T294 566T263 578Q259 580 249 585T232 591T218 593Q195 593 178 576Q172 569 166 569Q161 569 157 573L102 623Q96 629 96 635Q96 637 98 643Q112 677
140 696T204 716Q224 716 241 711T279 694Q282 692 291 688T307 681T323 678Q347 678 360 695Q366 702 372 702Q377 702 381 698L432 649Q438 643 438 636L436 628Q420 596 391 579T326 562Q308 562 294 566Z" />
<glyph unicode="&#xf2;" glyph-name="ograve" horiz-adv-x="510" d="M157 -8T97 41T25 176Q20 216 20 261Q20 313 26 350Q38 432 98 480T256 528Q352 528 412 480T484 351Q490 314 490 262Q490 225 486 179Q475 91 415 42T255 -8Q157 -8 97 41ZM273 153T284 166T299
201Q301 221 301 261Q301 282 299 322Q295 343 284 355T255 367Q237 367 226 355T211 322Q209 302 209 261Q209 221 211 201Q214 179 225 166T255 153Q273 153 284 166ZM320 593T320 589Q320 579 306 579H201Q189 579 183 588L109 682Q105 686 105 691Q105 695
108 697T118 700H247Q260 700 265 690L317 597Q320 593 320 589Z" />
<glyph unicode="&#xf3;" glyph-name="oacute" horiz-adv-x="510" d="M157 -8T97 41T25 176Q20 216 20 261Q20 313 26 350Q38 432 98 480T256 528Q352 528 412 480T484 351Q490 314 490 262Q490 225 486 179Q475 91 415 42T255 -8Q157 -8 97 41ZM273 153T284 166T299
201Q301 221 301 261Q301 282 299 322Q295 343 284 355T255 367Q237 367 226 355T211 322Q209 302 209 261Q209 221 211 201Q214 179 225 166T255 153Q273 153 284 166ZM175 579T175 589Q175 593 178 597L230 690Q235 700 248 700H377Q383 700 386 698T390 691Q390
686 386 682L312 588Q306 579 294 579H189Q175 579 175 589Z" />
<glyph unicode="&#xf4;" glyph-name="ocircumflex" horiz-adv-x="510" d="M157 -8T97 41T25 176Q20 216 20 261Q20 313 26 350Q38 432 98 480T256 528Q352 528 412 480T484 351Q490 314 490 262Q490 225 486 179Q475 91 415 42T255 -8Q157 -8 97 41ZM273 153T284
166T299 201Q301 221 301 261Q301 282 299 322Q295 343 284 355T255 367Q237 367 226 355T211 322Q209 302 209 261Q209 221 211 201Q214 179 225 166T255 153Q273 153 284 166ZM87 571T84 573T80 580Q80 585 83 589L147 690Q153 700 165 700H340Q352 700 358 690L424
589Q427 585 427 580Q427 571 414 571H298Q285 571 280 582L258 626Q256 629 254 629T250 626L228 582Q222 571 210 571H93Q87 571 84 573Z" />
<glyph unicode="&#xf5;" glyph-name="otilde" horiz-adv-x="510" d="M157 -8T97 41T25 176Q20 216 20 261Q20 313 26 350Q38 432 98 480T256 528Q352 528 412 480T484 351Q490 314 490 262Q490 225 486 179Q475 91 415 42T255 -8Q157 -8 97 41ZM273 153T284 166T299
201Q301 221 301 261Q301 282 299 322Q295 343 284 355T255 367Q237 367 226 355T211 322Q209 302 209 261Q209 221 211 201Q214 179 225 166T255 153Q273 153 284 166ZM304 562T290 566T259 578Q255 580 245 585T228 591T214 593Q191 593 174 576Q168 569 162
569Q157 569 153 573L98 623Q92 629 92 635Q92 637 94 643Q108 677 136 696T200 716Q220 716 237 711T275 694Q278 692 287 688T303 681T319 678Q343 678 356 695Q362 702 368 702Q373 702 377 698L428 649Q434 643 434 636L432 628Q416 596 387 579T322 562Q304
562 290 566Z" />
<glyph unicode="&#xf6;" glyph-name="odieresis" horiz-adv-x="510" d="M157 -8T97 41T25 176Q20 216 20 261Q20 313 26 350Q38 432 98 480T256 528Q352 528 412 480T484 351Q490 314 490 262Q490 225 486 179Q475 91 415 42T255 -8Q157 -8 97 41ZM273 153T284
166T299 201Q301 221 301 261Q301 282 299 322Q295 343 284 355T255 367Q237 367 226 355T211 322Q209 302 209 261Q209 221 211 201Q214 179 225 166T255 153Q273 153 284 166ZM320 560T294 586T267 654Q267 696 293 722T361 748Q402 748 428 722T455 654Q455
614 428 587T361 560Q320 560 294 586ZM107 560T81 586T54 654Q54 696 80 722T148 748Q189 748 215 722T242 654Q242 614 215 587T148 560Q107 560 81 586Z" />
<glyph unicode="&#xf7;" glyph-name="divide" horiz-adv-x="456" d="M196 402T173 425T149 482Q149 514 172 537T229 561Q261 561 284 538T308 482Q308 449 285 426T229 402Q196 402 173 425ZM28 227T24 231T20 242V362Q20 369 24 373T35 377H421Q428 377 432
373T436 362V242Q436 235 432 231T421 227H35Q28 227 24 231ZM196 48T173 71T149 128Q149 160 172 183T229 207Q261 207 284 184T308 128Q308 95 285 72T229 48Q196 48 173 71Z" />
<glyph unicode="&#xf8;" glyph-name="oslash" horiz-adv-x="500" d="M450 433T453 428Q471 396 479 351Q485 314 485 262Q485 225 481 179Q470 91 410 42T250 -8Q211 -8 176 1Q171 3 168 -2L126 -67Q122 -74 114 -74Q110 -74 105 -71L8 -3Q1 1 1 9Q1 14 4 18L47
84Q50 88 47 92Q26 128 20 176Q15 216 15 261Q15 313 21 350Q33 432 93 480T251 528Q288 528 323 520Q328 518 331 523L372 586Q376 593 384 593Q389 593 393 590L492 521Q499 517 499 510Q499 506 496 501L453 436Q450 433 453 428ZM296 221T296 261Q296 282 294
322Q290 343 279 355T250 367Q232 367 221 355T206 322Q204 302 204 261Q204 221 206 201Q209 179 220 166T250 153Q268 153 279 166T294 201Q296 221 296 261Z" />
<glyph unicode="&#xf9;" glyph-name="ugrave" horiz-adv-x="507" d="M292 512T296 516T307 520H465Q472 520 476 516T480 505V15Q480 8 476 4T465 0H307Q300 0 296 4T292 15V34Q292 38 290 38T285 36Q252 -8 180 -8Q112 -8 69 35T26 162V505Q26 512 30 516T41
520H199Q206 520 210 516T214 505V203Q214 180 224 167T252 153Q271 153 281 166T292 203V505Q292 512 296 516ZM317 593T317 589Q317 579 303 579H198Q186 579 180 588L106 682Q102 686 102 691Q102 695 105 697T115 700H244Q257 700 262 690L314 597Q317 593
317 589Z" />
<glyph unicode="&#xfa;" glyph-name="uacute" horiz-adv-x="507" d="M292 512T296 516T307 520H465Q472 520 476 516T480 505V15Q480 8 476 4T465 0H307Q300 0 296 4T292 15V34Q292 38 290 38T285 36Q252 -8 180 -8Q112 -8 69 35T26 162V505Q26 512 30 516T41
520H199Q206 520 210 516T214 505V203Q214 180 224 167T252 153Q271 153 281 166T292 203V505Q292 512 296 516ZM171 579T171 589Q171 593 174 597L226 690Q231 700 244 700H373Q379 700 382 698T386 691Q386 686 382 682L308 588Q302 579 290 579H185Q171 579
171 589Z" />
<glyph unicode="&#xfb;" glyph-name="ucircumflex" horiz-adv-x="507" d="M292 512T296 516T307 520H465Q472 520 476 516T480 505V15Q480 8 476 4T465 0H307Q300 0 296 4T292 15V34Q292 38 290 38T285 36Q252 -8 180 -8Q112 -8 69 35T26 162V505Q26 512 30 516T41
520H199Q206 520 210 516T214 505V203Q214 180 224 167T252 153Q271 153 281 166T292 203V505Q292 512 296 516ZM84 571T81 573T77 580Q77 585 80 589L144 690Q150 700 162 700H337Q349 700 355 690L421 589Q424 585 424 580Q424 571 411 571H295Q282 571 277 582L255
626Q253 629 251 629T247 626L225 582Q219 571 207 571H90Q84 571 81 573Z" />
<glyph unicode="&#xfc;" glyph-name="udieresis" horiz-adv-x="507" d="M292 512T296 516T307 520H465Q472 520 476 516T480 505V15Q480 8 476 4T465 0H307Q300 0 296 4T292 15V34Q292 38 290 38T285 36Q252 -8 180 -8Q112 -8 69 35T26 162V505Q26 512 30 516T41
520H199Q206 520 210 516T214 505V203Q214 180 224 167T252 153Q271 153 281 166T292 203V505Q292 512 296 516ZM317 560T291 586T264 654Q264 696 290 722T358 748Q399 748 425 722T452 654Q452 614 425 587T358 560Q317 560 291 586ZM104 560T78 586T51 654Q51
696 77 722T145 748Q186 748 212 722T239 654Q239 614 212 587T145 560Q104 560 78 586Z" />
<glyph unicode="&#xfd;" glyph-name="yacute" horiz-adv-x="497" d="M37 -199T35 -195T33 -184V-60Q33 -53 36 -49T43 -45Q103 -45 128 -38T154 -5Q154 2 153 4L13 503Q12 505 12 509Q12 520 25 520H194Q209 520 210 506L247 262Q248 258 250 258T253 262L288
506Q289 520 304 520L472 519Q480 519 483 515T484 502L340 -2Q316 -79 289 -119T205 -179T46 -199H40Q37 -199 35 -195ZM167 586T167 596Q167 600 170 604L222 697Q227 707 240 707H369Q375 707 378 705T382 698Q382 693 378 689L304 595Q298 586 286 586H181Q167
586 167 596Z" />
<glyph unicode="&#xfe;" glyph-name="thorn" horiz-adv-x="509" d="M479 367Q484 351 486 320T489 261Q489 191 482 163L480 156Q469 79 427 36T315 -8Q257 -8 222 31Q219 34 217 34T215 29V-185Q215 -192 211 -196T200 -200H42Q35 -200 31 -196T27 -185V685Q27
692 31 696T42 700H200Q207 700 211 696T215 685V496Q215 492 217 491T222 493Q256 528 311 528Q381 528 423 487T477 374L479 367ZM296 217T296 260Q296 304 289 335Q279 367 252 367Q227 367 216 343Q215 340 215 335V186Q215 181 216 178Q228 153 252 153Q279
153 289 186Q296 217 296 260Z" />
<glyph unicode="&#xff;" glyph-name="ydieresis" horiz-adv-x="497" d="M37 -199T35 -195T33 -184V-60Q33 -53 36 -49T43 -45Q103 -45 128 -38T154 -5Q154 2 153 4L13 503Q12 505 12 509Q12 520 25 520H194Q209 520 210 506L247 262Q248 258 250 258T253 262L288
506Q289 520 304 520L472 519Q480 519 483 515T484 502L340 -2Q316 -79 289 -119T205 -179T46 -199H40Q37 -199 35 -195ZM313 567T287 593T260 661Q260 703 286 729T354 755Q395 755 421 729T448 661Q448 621 421 594T354 567Q313 567 287 593ZM100 567T74 593T47
661Q47 703 73 729T141 755Q182 755 208 729T235 661Q235 621 208 594T141 567Q100 567 74 593Z" />
<glyph unicode="&#x2013;" glyph-name="endash" horiz-adv-x="440" d="M28 205T24 209T20 220V351Q20 358 24 362T35 366H405Q412 366 416 362T420 351V220Q420 213 416 209T405 205H35Q28 205 24 209Z" />
<glyph unicode="&#x2014;" glyph-name="emdash" horiz-adv-x="617" d="M28 206T24 210T20 221V351Q20 358 24 362T35 366H582Q589 366 593 362T597 351V221Q597 214 593 210T582 206H35Q28 206 24 210Z" />
<glyph unicode="&#x2018;" glyph-name="quoteleft" horiz-adv-x="239" d="M11 460T8 464T7 477L87 688Q92 700 104 700H222Q239 700 236 684L192 473Q189 460 175 460H19Q11 460 8 464Z" />
<glyph unicode="&#x2019;" glyph-name="quoteright" horiz-adv-x="239" d="M228 700T231 696T232 683L152 472Q148 460 135 460H17Q0 460 3 476L47 687Q50 700 64 700H220Q228 700 231 696Z" />
<glyph unicode="&#x201a;" glyph-name="quotesinglbase" horiz-adv-x="600" d="M31 -111T27 -107T24 -95L45 146Q46 160 60 160H197Q204 160 208 156T210 143L149 -98Q146 -111 133 -111H39Q31 -111 27 -107Z" />
<glyph unicode="&#x201c;" glyph-name="quotedblleft" horiz-adv-x="425" d="M10 460T7 464T6 477L78 688Q82 700 95 700H207Q224 700 221 684L183 474Q180 460 167 460H18Q10 460 7 464ZM213 460T210 464T209 477L279 688Q283 700 296 700H409Q425 700 422 684L386
474Q384 460 370 460H221Q213 460 210 464Z" />
<glyph unicode="&#x201d;" glyph-name="quotedblright" horiz-adv-x="425" d="M212 700T215 696T216 683L146 472Q142 460 129 460H16Q0 460 3 476L39 686Q41 700 55 700H204Q212 700 215 696ZM415 700T418 696T419 683L347 472Q343 460 330 460H218Q201 460 204
476L242 686Q245 700 258 700H407Q415 700 418 696Z" />
<glyph unicode="&#x201e;" glyph-name="quotedblbase" horiz-adv-x="439" d="M212 129T215 125T216 112L146 -99Q142 -111 129 -111H16Q0 -111 3 -95L39 115Q41 129 55 129H204Q212 129 215 125ZM415 129T418 125T419 112L347 -99Q343 -111 330 -111H218Q201 -111
204 -95L242 115Q245 129 258 129H407Q415 129 418 125Z" />
<glyph unicode="&#x2022;" glyph-name="bullet" horiz-adv-x="318" d="M122 143T90 162T39 213T20 283Q20 321 38 353T89 403T160 422Q197 422 229 404T279 353T298 283Q298 245 280 213T229 162T160 143Q122 143 90 162Z" />
<glyph unicode="&#x2039;" glyph-name="guilsinglleft" horiz-adv-x="298" d="M260 119T260 118Q260 113 256 110T246 107H124Q112 107 107 118L38 271Q36 279 36 281Q36 283 38 291L107 444Q112 455 124 455H246Q254 455 258 450T258 437L185 285Q184 281 185
277L258 125Q260 119 260 118Z" />
<glyph unicode="&#x203a;" glyph-name="guilsinglright" horiz-adv-x="294" d="M45 107T41 112T41 125L114 277Q115 281 114 285L41 437Q39 443 39 444Q39 449 43 452T53 455H175Q187 455 192 444L261 291Q263 287 263 281Q263 275 261 271L192 118Q187 107 175
107H53Q45 107 41 112Z" />
</font>
</defs>
</svg>
