<?xml version="1.0" encoding="utf-8"?>
<!-- Generator: Adobe Illustrator 21.1.0, SVG Export Plug-In . SVG Version: 6.00 Build 0)  -->
<svg version="1.1" id="Layer_1" xmlns="http://www.w3.org/2000/svg" xmlns:xlink="http://www.w3.org/1999/xlink" x="0px" y="0px"
	 viewBox="0 0 112 35" width="112px" height="35px" style="enable-background:new 0 0 112 35;" xml:space="preserve">
<style type="text/css">
	.st0{fill:#201F1F;}
</style>
<g>
	<path class="st0" d="M17.3,34.6c-2.9,0-5.5-0.6-7.8-1.9c-2.3-1.2-4.1-3-5.4-5.4c-1.3-2.3-2-5-2-8.1c0-3.1,0.7-5.7,2-8.1
		c1.3-2.3,3.1-4.1,5.4-5.3c2.3-1.2,4.9-1.9,7.8-1.9c2.9,0,5.5,0.6,7.8,1.9c2.3,1.2,4.1,3,5.4,5.3c1.3,2.3,2,5,2,8.1
		c0,3-0.7,5.7-2,8.1c-1.3,2.3-3.1,4.1-5.4,5.4S20.2,34.6,17.3,34.6z M10.8,26.4c1.7,1.7,3.9,2.6,6.5,2.6s4.8-0.9,6.5-2.6
		c1.7-1.7,2.5-4.1,2.5-7c0-2.9-0.9-5.3-2.5-7c-1.7-1.7-3.9-2.6-6.5-2.6s-4.8,0.9-6.5,2.6s-2.5,4.1-2.5,7
		C8.3,22.3,9.1,24.6,10.8,26.4z"/>
	<path class="st0" d="M40.4,9.9c-0.9,0-1.8-0.3-2.4-1c-0.7-0.7-1-1.5-1-2.4c0-0.9,0.3-1.7,1-2.4c0.7-0.7,1.5-1,2.4-1
		c0.9,0,1.7,0.3,2.4,1c0.7,0.7,1,1.5,1,2.4c0,0.9-0.3,1.8-1,2.4C42.1,9.6,41.3,9.9,40.4,9.9z M37.4,34.2V13.1h6v21.1H37.4z"/>
	<path class="st0" d="M55.1,16.4c0.6-1,1.5-1.8,2.8-2.5c1.3-0.7,2.7-1.1,4.1-1.1v5.3c-2.3,0-4,0.4-5.1,1.3c-1,0.8-1.6,2.4-1.6,4.5
		v10.3h-6V13.1h5.7V16.4z"/>
	<path class="st0" d="M82.7,28.5c0,2.2,0.2,4,0.5,5.2v0.6h-5.5l-0.5-2.3c-0.8,0.9-1.7,1.6-3,2s-2.5,0.7-3.8,0.7
		c-0.7,0-1.4-0.1-2-0.2c-0.6-0.1-1.2-0.3-1.8-0.6c-0.6-0.3-1.1-0.7-1.5-1.1c-0.4-0.4-0.7-1-1-1.7c-0.2-0.7-0.4-1.4-0.4-2.3
		c0-0.8,0.1-1.6,0.4-2.3c0.3-0.7,0.6-1.2,1-1.7c0.4-0.5,1-0.9,1.7-1.3c0.7-0.4,1.4-0.7,2.1-0.9c0.7-0.2,1.5-0.5,2.5-0.7l3.5-0.8
		c0.7-0.2,1.3-0.4,1.6-0.7c0.3-0.3,0.5-0.6,0.5-1.1c0-0.9-0.3-1.6-1-2c-0.7-0.4-1.5-0.6-2.5-0.6c-2.4,0-3.8,1.1-4.1,3.2L64.2,19
		c0.4-2.2,1.5-3.8,3.1-4.8c1.6-1,3.8-1.6,6.6-1.6c5.9,0,8.9,2.5,8.9,7.6V28.5z M74,10.8c-1.4,0-2.5-0.5-3.5-1.5
		c-1-1-1.4-2.1-1.4-3.5c0-1.3,0.5-2.5,1.5-3.4c1-1,2.1-1.4,3.5-1.4c1.3,0,2.5,0.5,3.4,1.4c1,1,1.4,2.1,1.4,3.4
		c0,1.4-0.5,2.5-1.4,3.5C76.4,10.3,75.3,10.8,74,10.8z M72.3,30.6c1.5,0,2.7-0.5,3.7-1.5c0.9-1,1.4-2.5,1.4-4.5l-5,1.4
		c-0.9,0.2-1.6,0.5-2.1,0.9s-0.7,0.9-0.7,1.5c0,0.7,0.3,1.3,0.8,1.7C70.8,30.4,71.5,30.6,72.3,30.6z M75.7,4.1
		c-0.5-0.5-1-0.7-1.7-0.7c-0.7,0-1.2,0.2-1.7,0.7c-0.5,0.5-0.7,1.1-0.7,1.7c0,0.7,0.2,1.3,0.7,1.8c0.5,0.5,1,0.7,1.7,0.7
		s1.3-0.2,1.7-0.7c0.5-0.5,0.7-1,0.7-1.8C76.4,5.2,76.1,4.6,75.7,4.1z"/>
	<path class="st0" d="M101,12.7c2.5,0,4.5,0.6,5.8,1.9c1.4,1.3,2,3.1,2,5.4v14.2h-5.9v-13c0-1.3-0.4-2.3-1.1-2.9
		c-0.7-0.6-1.6-0.9-2.7-0.9c-0.6,0-1.2,0.1-1.8,0.3c-0.5,0.2-1,0.5-1.5,0.8s-0.8,0.9-1.1,1.6c-0.3,0.7-0.4,1.5-0.4,2.4v11.7h-5.9
		V13.1h5.9v2.3C96,13.6,98.2,12.7,101,12.7z"/>
</g>
</svg>
